<?xml version="1.0" standalone="no"?>
<!DOCTYPE svg PUBLIC "-//W3C//DTD SVG 20010904//EN"
 "http://www.w3.org/TR/2001/REC-SVG-20010904/DTD/svg10.dtd">
<svg version="1.0" xmlns="http://www.w3.org/2000/svg"
 width="1024.000000pt" height="1024.000000pt" viewBox="0 0 1024.000000 1024.000000"
 preserveAspectRatio="xMidYMid meet">
<metadata>
Created by potrace 1.16, written by Peter Selinger 2001-2019
</metadata>
<g transform="translate(0.000000,1024.000000) scale(0.100000,-0.100000)"
fill="#3ecf8e" stroke="none">
<path d="M5178 9455 c-2 -2 -18 -5 -36 -7 -18 -1 -32 -6 -32 -10 0 -4 -6 -8
-13 -8 -15 0 -56 -41 -82 -83 -17 -26 -18 -62 -21 -390 -1 -218 2 -379 8 -404
12 -49 66 -108 112 -122 17 -5 99 -12 181 -15 145 -6 185 -9 250 -20 17 -3 50
-8 75 -11 135 -18 327 -60 346 -76 6 -5 13 -7 16 -4 4 4 170 -45 281 -84 68
-24 183 -74 322 -142 384 -186 750 -465 1030 -784 39 -44 76 -86 84 -94 7 -8
39 -49 70 -90 31 -42 59 -78 62 -81 14 -12 131 -194 187 -291 66 -116 130
-243 134 -268 2 -9 8 -21 14 -27 5 -7 27 -56 48 -110 21 -55 42 -108 46 -119
25 -60 39 -105 35 -105 -3 0 2 -11 11 -25 9 -14 14 -25 10 -25 -3 0 -1 -12 5
-27 11 -30 64 -256 72 -313 3 -19 8 -46 11 -60 7 -37 34 -233 34 -250 0 -8 3
-53 8 -100 12 -143 7 -449 -11 -570 -51 -344 -101 -550 -197 -800 -196 -513
-535 -987 -957 -1340 -29 -25 -65 -55 -80 -67 -14 -13 -32 -23 -38 -23 -7 0
-13 -4 -13 -8 0 -4 -32 -30 -71 -57 -39 -28 -76 -55 -82 -60 -30 -26 -281
-175 -357 -212 -231 -112 -322 -148 -532 -212 -157 -48 -271 -76 -340 -85 -37
-5 -101 -15 -138 -22 -14 -2 -52 -6 -85 -9 -33 -3 -73 -7 -90 -10 -16 -2 -95
-6 -174 -10 -149 -7 -190 -16 -226 -53 -36 -38 -43 -49 -52 -83 -11 -42 -10
-734 1 -769 14 -44 58 -92 100 -111 35 -15 62 -17 181 -14 77 2 163 6 190 9
28 3 82 8 120 12 97 9 96 9 136 26 52 23 84 72 94 144 2 16 6 52 10 79 4 28 8
61 10 75 2 14 7 45 10 70 3 25 9 59 12 75 3 17 6 42 6 57 0 16 7 30 16 32 18
5 61 14 106 22 59 10 292 77 422 120 150 51 133 54 203 -36 19 -25 42 -52 51
-60 9 -8 40 -44 70 -80 73 -87 107 -119 135 -126 13 -3 24 -9 24 -13 0 -8 34
-7 80 4 37 8 118 48 235 115 39 23 81 46 95 53 14 6 27 14 30 17 3 3 70 47
150 98 80 50 177 116 215 145 124 94 133 150 55 340 -51 121 -61 146 -80 190
-31 72 -31 74 8 103 20 15 93 85 162 154 111 112 165 170 254 274 23 28 27 29
53 17 65 -30 385 -141 406 -141 58 0 147 48 147 79 0 5 4 11 8 13 17 7 242
368 242 388 0 5 3 10 8 12 4 2 43 75 86 163 68 137 79 167 79 211 0 61 -20
102 -67 137 -19 15 -40 33 -48 40 -7 7 -44 37 -83 67 -145 112 -180 143 -177
159 2 9 25 86 51 171 26 85 63 228 82 317 l34 161 110 17 c433 66 431 64 452
355 13 186 7 516 -13 660 -9 63 -40 114 -85 139 -42 24 -44 24 -134 37 -33 4
-62 8 -65 9 -3 0 -32 5 -65 10 -33 5 -62 9 -65 10 -18 4 -126 18 -132 17 -5
-1 -9 4 -9 11 -4 35 -14 86 -30 152 -5 22 -12 51 -14 65 -19 95 -28 133 -46
195 -12 39 -25 79 -29 90 -5 11 -18 48 -29 83 l-20 62 32 25 c18 14 82 64 142
111 61 47 122 96 138 108 35 27 64 75 72 120 11 56 -2 87 -167 404 -59 116
-206 354 -220 360 -4 2 -8 8 -8 14 0 6 -18 33 -40 60 -22 28 -40 48 -40 45 0
-4 -12 -2 -27 4 -49 20 -109 10 -235 -37 -68 -25 -130 -47 -138 -49 -8 -2 -42
-15 -75 -30 l-60 -26 -24 28 c-112 133 -235 260 -383 397 l-66 61 17 35 c28
58 128 302 141 343 20 64 6 119 -44 169 -49 49 -43 44 -153 118 -46 30 -83 58
-83 63 0 4 -5 7 -10 7 -6 0 -37 17 -68 38 -90 60 -292 176 -359 207 -17 8 -34
19 -37 24 -7 10 -69 25 -103 24 -69 -1 -77 -5 -122 -50 -26 -27 -60 -64 -75
-83 -16 -19 -56 -66 -90 -104 -117 -133 -108 -126 -136 -114 -14 6 -32 13 -40
15 -8 2 -19 5 -25 6 -5 2 -19 8 -30 14 -20 10 -109 40 -250 83 -38 11 -77 24
-85 27 -17 7 -25 9 -60 16 -46 10 -125 28 -142 33 -17 5 -24 26 -33 109 -4 28
-10 75 -16 105 -5 30 -11 78 -14 105 -10 83 -15 106 -32 139 -34 68 -84 88
-248 102 -44 4 -96 8 -115 10 -19 1 -82 6 -140 9 -57 4 -107 8 -111 11 -3 2
-8 1 -11 -1z"/>
<path d="M4490 9383 c-14 -2 -85 -13 -159 -24 -73 -11 -143 -22 -155 -25 -11
-2 -37 -7 -56 -10 -35 -6 -184 -44 -330 -83 -103 -28 -332 -110 -430 -153 -25
-11 -79 -35 -120 -54 -278 -123 -677 -372 -911 -569 -62 -51 -150 -128 -189
-165 -21 -19 -46 -42 -56 -51 -54 -46 -244 -252 -368 -399 -133 -158 -351
-493 -474 -730 -29 -58 -59 -111 -65 -119 -7 -8 -11 -17 -11 -20 2 -8 -8 -35
-46 -116 -119 -262 -224 -612 -290 -970 -45 -244 -48 -293 -20 -343 42 -75
144 -104 209 -60 47 32 72 69 76 112 2 20 6 49 9 64 3 15 8 43 10 62 3 19 12
73 21 120 9 47 19 96 22 110 14 78 99 382 134 480 22 63 42 120 43 125 2 6 8
21 13 35 6 14 24 59 41 100 34 85 173 364 227 455 20 33 41 71 48 85 6 14 14
27 17 30 3 3 26 34 50 70 89 132 190 271 252 345 259 311 516 543 845 763 67
45 126 82 129 82 4 0 15 6 23 14 9 7 41 26 71 42 30 16 57 32 60 35 6 7 286
146 355 176 130 56 398 149 519 179 87 22 329 71 384 79 26 3 56 8 67 10 11 2
52 7 90 10 39 3 86 10 106 15 92 25 133 158 73 237 -42 55 -108 73 -214 56z"/>
<path d="M4497 8733 c-1 -1 -25 -4 -52 -7 -42 -5 -140 -22 -234 -41 -77 -15
-335 -84 -391 -104 -14 -5 -77 -28 -140 -51 -102 -37 -437 -193 -450 -209 -3
-3 -25 -17 -50 -30 -84 -45 -381 -251 -451 -313 -15 -13 -48 -41 -75 -63 -107
-89 -323 -301 -376 -370 -12 -16 -28 -36 -35 -43 -7 -7 -29 -34 -50 -60 -21
-26 -40 -49 -43 -52 -3 -3 -23 -30 -45 -60 -22 -30 -43 -56 -47 -58 -5 -2 -8
-8 -8 -14 0 -5 -8 -20 -18 -33 -37 -49 -152 -234 -152 -245 0 -5 -4 -10 -8
-12 -8 -3 -202 -388 -202 -400 0 -4 -5 -19 -12 -35 -6 -15 -12 -32 -14 -38 -2
-5 -23 -64 -48 -130 -25 -66 -45 -120 -45 -120 2 0 -27 -106 -35 -130 -2 -5
-4 -13 -5 -17 -1 -4 -7 -22 -12 -40 -12 -40 -75 -338 -83 -393 -3 -22 -8 -51
-11 -65 -2 -14 -7 -47 -10 -75 -28 -245 -206 -472 -426 -545 -35 -11 -81 -23
-101 -26 -39 -7 -94 -53 -109 -92 -35 -93 28 -195 129 -209 46 -6 180 26 254
62 29 14 57 25 64 25 7 0 14 3 16 8 2 4 28 23 58 43 78 52 174 142 231 218 88
115 176 328 194 466 1 11 5 38 8 60 4 22 9 65 12 95 23 207 134 581 254 855
125 285 344 646 483 795 13 14 36 41 52 60 62 77 236 250 352 350 27 24 185
144 264 202 101 73 271 173 410 239 176 85 507 206 605 222 17 3 59 12 95 21
36 8 81 18 100 21 19 3 44 8 54 12 11 3 33 7 50 8 37 3 118 13 165 21 147 24
168 247 27 294 -26 8 -132 11 -139 3z"/>
<path d="M425 8680 c-3 -6 1 -7 9 -4 18 7 21 14 7 14 -6 0 -13 -4 -16 -10z"/>
<path d="M1715 8360 c3 -5 8 -10 11 -10 2 0 4 5 4 10 0 6 -5 10 -11 10 -5 0
-7 -4 -4 -10z"/>
<path d="M5119 8177 c-25 -14 -49 -37 -63 -62 -21 -38 -22 -51 -21 -275 1
-261 3 -272 67 -323 62 -50 150 -34 200 35 22 32 23 37 23 288 0 251 0 256
-23 288 -45 63 -119 83 -183 49z"/>
<path d="M4498 8075 c-2 -2 -24 -7 -48 -10 -148 -20 -484 -110 -625 -167 -142
-57 -330 -152 -460 -231 -38 -23 -200 -132 -205 -137 -3 -3 -50 -42 -105 -85
-136 -108 -394 -366 -470 -469 -11 -15 -30 -39 -42 -52 -49 -54 -251 -375
-284 -451 -8 -18 -17 -33 -21 -33 -5 0 -8 -6 -8 -13 0 -13 -38 -100 -61 -141
-6 -11 -19 -42 -29 -70 -10 -28 -30 -82 -45 -121 -48 -128 -117 -370 -136
-482 -5 -32 -17 -98 -25 -148 -9 -49 -18 -103 -21 -120 -20 -126 -92 -350
-140 -435 -87 -154 -147 -233 -261 -346 -158 -155 -333 -256 -547 -313 -133
-35 -161 -215 -44 -280 85 -48 191 -22 447 107 237 119 467 337 616 581 144
238 195 392 260 781 20 121 57 277 90 385 42 137 123 344 144 368 8 9 12 17 8
17 -9 0 96 200 160 305 40 66 195 288 214 305 3 3 32 36 65 74 65 76 212 221
260 258 17 12 35 28 40 34 24 28 235 177 340 241 17 11 95 50 325 163 19 9 80
32 135 49 55 18 107 35 115 38 16 6 30 11 58 17 9 3 17 5 17 6 0 1 9 3 20 5
11 2 43 9 70 15 28 6 60 12 72 15 13 2 26 6 30 8 5 3 31 8 58 11 28 3 61 8 75
10 14 3 43 7 64 11 85 12 133 81 123 178 -4 42 -10 55 -43 86 -37 34 -43 36
-110 38 -40 1 -74 0 -76 -2z"/>
<path d="M513 7875 c0 -8 4 -12 9 -9 5 3 6 10 3 15 -9 13 -12 11 -12 -6z"/>
<path d="M6628 7746 c-29 -12 -78 -54 -78 -67 0 -7 -60 -109 -70 -119 -3 -3
-11 -16 -19 -30 -127 -221 -133 -237 -125 -290 5 -29 17 -52 40 -74 36 -35 66
-43 141 -34 16 1 93 74 93 88 0 9 83 153 138 240 23 36 42 71 42 78 0 6 4 12
9 12 6 0 9 29 8 64 -2 66 -21 101 -70 127 -27 15 -79 17 -109 5z"/>
<path d="M4529 7385 c-5 -4 -57 -14 -103 -19 -12 -1 -26 -5 -31 -8 -6 -3 -37
-11 -69 -18 -185 -38 -386 -116 -601 -235 -93 -51 -287 -183 -315 -215 -3 -3
-23 -18 -45 -34 -22 -17 -75 -64 -119 -105 -43 -42 -84 -81 -90 -87 -16 -15
-151 -170 -175 -200 -27 -33 -174 -257 -200 -304 -30 -54 -115 -224 -151 -305
-38 -83 -124 -376 -146 -490 -2 -11 -13 -72 -24 -135 -42 -228 -54 -286 -62
-310 -3 -8 -18 -53 -33 -100 -57 -175 -133 -327 -257 -514 -32 -47 -126 -166
-167 -210 -76 -82 -185 -186 -195 -186 -3 0 -16 -10 -29 -22 -13 -13 -32 -30
-43 -38 -67 -52 -94 -70 -102 -70 -6 0 -12 -3 -14 -7 -4 -11 -86 -63 -98 -63
-5 0 -10 -4 -10 -9 0 -8 -180 -95 -264 -127 -92 -34 -138 -104 -122 -188 19
-98 135 -149 237 -103 277 124 379 183 589 341 138 105 288 258 416 426 61 81
118 160 127 180 4 8 21 38 37 65 77 130 137 261 185 400 23 70 80 297 95 380
23 129 50 270 61 315 21 84 51 185 64 215 7 17 27 68 45 114 17 46 45 113 62
150 40 85 145 266 164 282 8 6 14 16 14 21 0 22 144 192 265 314 153 154 302
269 446 345 208 110 249 128 404 176 91 28 148 43 187 48 15 2 35 6 45 9 10 2
40 7 67 11 77 10 118 36 142 94 31 75 8 151 -59 195 -37 24 -113 36 -128 21z"/>
<path d="M5095 7125 c-49 -17 -81 -53 -94 -103 -5 -22 -8 -421 -7 -992 1 -914
2 -956 20 -990 24 -44 935 -954 978 -976 70 -36 159 -11 196 55 25 45 29 113
8 153 -11 21 -538 560 -783 801 l-43 42 715 720 c770 774 745 745 731 838 -15
98 -128 156 -213 110 -40 -22 -133 -114 -780 -768 l-522 -527 1 749 c0 412 -3
765 -7 784 -8 37 -75 108 -103 110 -10 0 -26 2 -37 4 -11 2 -38 -3 -60 -10z"/>
<path d="M4490 6670 c-127 -27 -272 -76 -390 -134 -58 -28 -106 -54 -108 -58
-2 -5 -8 -8 -13 -8 -8 0 -68 -36 -104 -62 -259 -190 -440 -381 -570 -603 -28
-48 -135 -262 -135 -270 0 -2 -5 -16 -12 -32 -6 -15 -12 -30 -13 -33 0 -3 -12
-36 -25 -75 -13 -38 -25 -74 -26 -80 -1 -5 -11 -53 -22 -105 -11 -52 -23 -113
-26 -135 -4 -23 -8 -50 -10 -60 -2 -11 -7 -45 -11 -75 -4 -30 -9 -62 -10 -71
-2 -9 -6 -32 -9 -50 -14 -91 -87 -341 -126 -434 -7 -16 -14 -35 -15 -41 -5
-20 -135 -275 -155 -304 -11 -15 -20 -31 -20 -34 0 -11 -134 -202 -189 -270
-53 -65 -276 -295 -351 -362 -56 -49 -218 -167 -309 -224 -77 -48 -192 -108
-332 -175 -68 -32 -97 -57 -115 -101 -35 -83 -2 -165 80 -199 56 -24 92 -16
216 43 205 97 424 230 567 344 119 96 139 113 273 248 158 158 182 185 263
295 37 50 70 95 75 100 96 124 239 396 319 609 47 125 127 432 138 526 3 30 9
69 12 85 2 17 6 46 8 65 8 97 100 413 150 513 51 100 149 257 203 324 150 185
354 346 562 443 59 28 235 87 280 95 89 15 139 35 161 67 33 46 37 123 10 176
-37 72 -93 88 -221 62z"/>
<path d="M7715 6633 c-22 -4 -127 -54 -135 -64 -6 -9 -166 -96 -202 -112 -16
-6 -28 -15 -28 -19 0 -4 -6 -8 -13 -8 -11 0 -46 -30 -74 -63 -6 -8 -10 -40
-10 -71 2 -49 6 -60 32 -84 75 -68 113 -65 260 18 22 12 63 35 90 50 28 15 77
44 110 64 33 20 67 39 76 42 23 8 59 76 59 112 0 35 -14 78 -33 96 -30 30 -89
48 -132 39z"/>
<path d="M9760 6480 c-9 -6 -10 -10 -3 -10 6 0 15 5 18 10 8 12 4 12 -15 0z"/>
<path d="M5796 6433 c-6 -14 -5 -15 5 -6 7 7 10 15 7 18 -3 3 -9 -2 -12 -12z"/>
<path d="M6910 6201 c0 -6 4 -13 10 -16 6 -3 7 1 4 9 -7 18 -14 21 -14 7z"/>
<path d="M30 6119 c0 -5 5 -7 10 -4 6 3 10 8 10 11 0 2 -4 4 -10 4 -5 0 -10
-5 -10 -11z"/>
<path d="M4475 6015 c-202 -44 -368 -132 -518 -274 -78 -74 -196 -231 -234
-311 -87 -186 -114 -303 -128 -569 -3 -58 -8 -121 -11 -140 -3 -20 -9 -63 -14
-96 -5 -33 -12 -78 -15 -100 -18 -115 -84 -337 -153 -510 -75 -190 -252 -501
-366 -642 -211 -262 -394 -443 -621 -615 -58 -43 -258 -177 -286 -192 -8 -4
-23 -12 -34 -19 -11 -7 -73 -41 -138 -76 -142 -76 -170 -107 -171 -185 -1 -91
62 -156 151 -156 44 0 170 61 350 171 63 38 118 69 123 69 5 0 10 4 12 8 2 5
26 23 53 42 28 18 52 37 55 40 3 4 15 12 27 18 11 7 71 52 132 101 418 340
709 702 929 1161 39 80 73 155 77 168 3 12 10 20 14 18 4 -3 7 3 7 12 1 14 62
212 81 262 3 8 8 24 10 35 2 11 8 38 14 60 6 22 12 47 14 55 2 8 8 33 13 55 6
22 13 57 16 79 4 21 8 41 10 45 2 3 7 40 11 81 4 41 8 82 10 90 2 8 6 65 10
125 3 61 8 136 10 167 4 61 35 183 62 246 9 20 17 39 18 42 1 5 25 44 62 101
50 76 121 147 228 227 43 32 173 83 250 98 141 26 199 76 197 171 -1 49 -14
78 -50 111 -47 45 -97 51 -207 27z"/>
<path d="M9585 6000 c-3 -6 1 -7 9 -4 18 7 21 14 7 14 -6 0 -13 -4 -16 -10z"/>
<path d="M9795 5880 c-3 -5 -1 -10 4 -10 6 0 11 5 11 10 0 6 -2 10 -4 10 -3 0
-8 -4 -11 -10z"/>
<path d="M9865 5880 c-3 -6 1 -7 9 -4 18 7 21 14 7 14 -6 0 -13 -4 -16 -10z"/>
<path d="M9796 5802 c-3 -5 1 -9 9 -9 8 0 12 4 9 9 -3 4 -7 8 -9 8 -2 0 -6 -4
-9 -8z"/>
<path d="M6275 5481 c-3 -5 -2 -12 3 -15 5 -3 9 1 9 9 0 17 -3 19 -12 6z"/>
<path d="M4508 5349 c-137 -49 -247 -157 -295 -289 -25 -66 -32 -119 -38 -265
-2 -60 -7 -126 -9 -145 -3 -19 -8 -55 -11 -80 -3 -25 -13 -85 -21 -135 -8 -49
-17 -103 -20 -120 -8 -50 -34 -158 -43 -185 -5 -14 -22 -70 -37 -125 -15 -55
-30 -104 -34 -110 -3 -5 -12 -30 -19 -54 -15 -53 -86 -223 -141 -339 -97 -202
-266 -467 -407 -636 -7 -8 -34 -41 -60 -73 -60 -74 -45 -58 -208 -222 -76 -78
-143 -141 -148 -141 -4 0 -18 -10 -30 -23 -36 -38 -175 -147 -186 -147 -6 0
-11 -4 -11 -8 0 -10 -86 -72 -99 -72 -5 0 -11 -4 -13 -9 -4 -13 -201 -139
-295 -189 -63 -34 -85 -52 -103 -84 -40 -72 -23 -152 42 -201 80 -60 113 -49
388 121 155 97 304 201 322 227 5 6 8 6 8 0 0 -7 3 -6 8 0 4 6 45 42 92 80
229 189 456 429 628 665 34 47 66 90 71 96 5 6 21 30 36 55 16 24 31 46 34 49
26 20 270 481 292 550 4 14 17 50 29 80 34 87 109 299 114 323 3 12 19 76 36
141 28 111 63 293 75 396 3 25 7 61 10 80 5 38 17 214 19 268 0 17 3 32 7 32
4 0 5 9 2 19 -9 35 26 119 61 146 18 14 37 25 41 25 5 0 28 9 51 21 80 38 111
134 70 212 -39 74 -118 99 -208 66z"/>
<path d="M7690 5190 c-87 -7 -120 -25 -141 -80 -29 -76 0 -165 63 -191 34 -14
342 -19 490 -8 68 5 82 9 108 34 66 63 51 181 -29 228 -25 15 -59 18 -223 20
-106 1 -227 0 -268 -3z"/>
<path d="M9950 5079 c0 -5 5 -7 10 -4 6 3 10 8 10 11 0 2 -4 4 -10 4 -5 0 -10
-5 -10 -11z"/>
<path d="M9710 5000 c0 -5 5 -10 11 -10 5 0 7 5 4 10 -3 6 -8 10 -11 10 -2 0
-4 -4 -4 -10z"/>
<path d="M4986 4198 c3 -5 10 -6 15 -3 13 9 11 12 -6 12 -8 0 -12 -4 -9 -9z"/>
<path d="M7310 3918 c-48 -24 -75 -79 -71 -146 2 -39 62 -89 211 -173 80 -45
152 -87 160 -94 28 -24 111 -46 147 -39 104 20 140 161 59 229 -20 17 -57 41
-84 54 -26 14 -61 35 -79 48 -17 13 -35 23 -38 23 -4 0 -19 8 -33 18 -64 44
-165 93 -200 95 -21 2 -52 -5 -72 -15z"/>
<path d="M4575 3684 c-48 -25 -62 -47 -90 -140 -27 -90 -35 -115 -56 -169 -7
-16 -13 -32 -13 -35 -6 -25 -92 -227 -100 -232 -6 -4 -8 -8 -4 -8 11 0 -29
-83 -109 -222 -185 -325 -396 -589 -659 -826 -32 -30 -71 -65 -85 -79 -17 -16
-31 -23 -39 -18 -8 5 -11 4 -6 -3 7 -11 -121 -119 -136 -114 -4 1 -8 -2 -8 -7
0 -8 -140 -112 -165 -122 -5 -2 -48 -29 -95 -60 -47 -30 -103 -66 -126 -78
-44 -25 -73 -64 -76 -105 -1 -14 -7 -26 -13 -26 -5 0 -3 -5 5 -10 8 -5 12 -10
7 -10 -13 0 23 -74 46 -95 29 -27 89 -45 128 -38 17 2 52 16 78 30 80 44 166
98 169 106 2 4 8 7 13 7 6 0 33 17 62 38 29 21 77 56 107 77 30 21 98 72 150
114 52 42 103 83 114 91 46 37 339 332 396 400 35 41 67 77 72 78 4 2 8 8 8
13 0 5 22 37 49 72 210 270 395 601 499 897 109 311 116 361 61 437 -36 51
-124 68 -184 37z"/>
<path d="M4870 3279 c0 -5 5 -7 10 -4 6 3 10 8 10 11 0 2 -4 4 -10 4 -5 0 -10
-5 -10 -11z"/>
<path d="M279 3033 c-13 -16 -12 -17 4 -4 9 7 17 15 17 17 0 8 -8 3 -21 -13z"/>
<path d="M6401 3009 c-53 -23 -75 -59 -75 -123 0 -45 8 -66 68 -171 37 -66 75
-131 84 -145 9 -14 17 -27 17 -30 2 -17 61 -103 82 -120 58 -46 152 -34 192
25 35 52 34 97 -6 177 -19 37 -39 68 -45 68 -6 0 -9 3 -5 6 3 3 -10 32 -29 64
-19 32 -34 61 -34 63 0 12 -82 149 -99 166 -11 11 -39 23 -64 29 -37 8 -53 6
-86 -9z"/>
<path d="M5118 2721 c-38 -18 -70 -48 -83 -76 -5 -11 -9 -99 -10 -196 -1 -96
-5 -181 -9 -187 -4 -7 -4 -12 1 -12 4 0 8 -36 9 -80 0 -89 13 -116 75 -158 66
-45 173 -10 205 68 7 15 10 123 9 280 -3 314 0 285 -32 318 -52 52 -114 68
-165 43z"/>
<path d="M4583 2557 c-45 -17 -61 -35 -150 -174 -43 -67 -87 -133 -98 -148
-120 -160 -166 -219 -200 -260 -163 -196 -415 -439 -605 -585 -25 -19 -46 -38
-48 -42 -2 -5 -10 -8 -17 -8 -19 0 -85 -70 -101 -107 -8 -18 -14 -52 -14 -75
0 -91 116 -162 207 -127 15 6 29 10 31 10 1 -1 10 7 20 17 10 9 29 24 42 32
12 8 28 20 34 25 56 52 187 155 196 155 6 0 8 4 5 10 -3 5 -3 10 2 10 17 0
224 199 343 329 47 52 92 101 101 110 23 23 168 205 220 276 24 33 47 62 52
63 4 2 7 7 7 12 0 4 19 36 43 72 23 35 53 83 67 107 14 23 31 49 38 57 7 8 11
14 7 14 -3 0 2 14 10 31 17 33 16 81 -4 117 -6 12 -9 22 -6 22 9 0 -16 23 -48
43 -36 23 -94 29 -134 14z"/>
<path d="M8690 1756 c7 -7 13 -7 20 0 6 6 3 10 -10 10 -13 0 -16 -4 -10 -10z"/>
<path d="M4583 1725 c-41 -17 -54 -31 -136 -136 -75 -98 -390 -419 -411 -419
-10 0 -87 -83 -101 -109 -8 -16 -12 -47 -10 -74 6 -98 85 -163 174 -144 57 12
56 11 192 137 178 166 238 228 349 360 30 35 67 78 82 95 111 121 70 290 -72
301 -19 1 -50 -4 -67 -11z"/>
<path d="M4110 1406 c0 -2 7 -7 16 -10 8 -3 12 -2 9 4 -6 10 -25 14 -25 6z"/>
<path d="M4756 1113 c-6 -14 -5 -15 5 -6 7 7 10 15 7 18 -3 3 -9 -2 -12 -12z"/>
</g>
</svg>
