<?xml version="1.0" standalone="no"?>
<!DOCTYPE svg PUBLIC "-//W3C//DTD SVG 20010904//EN"
 "http://www.w3.org/TR/2001/REC-SVG-20010904/DTD/svg10.dtd">
<svg version="1.0" xmlns="http://www.w3.org/2000/svg"
 width="2048.000000pt" height="2048.000000pt" viewBox="0 0 2048.000000 2048.000000"
 preserveAspectRatio="xMidYMid meet">
<metadata>
Created by potrace 1.16, written by Peter Selinger 2001-2019
</metadata>
<g transform="translate(0.000000,2048.000000) scale(0.100000,-0.100000)"
fill="#000000" stroke="none">
<path d="M3596 20313 c-6 -14 -5 -15 5 -6 7 7 10 15 7 18 -3 3 -9 -2 -12 -12z"/>
<path d="M12235 20221 c-3 -5 -2 -12 3 -15 5 -3 9 1 9 9 0 17 -3 19 -12 6z"/>
<path d="M2715 20001 c-3 -5 -2 -12 3 -15 5 -3 9 1 9 9 0 17 -3 19 -12 6z"/>
<path d="M5833 19845 c0 -8 4 -15 9 -15 4 0 8 4 8 9 0 6 -4 12 -8 15 -5 3 -9
-1 -9 -9z"/>
<path d="M7916 19842 c-3 -5 1 -9 9 -9 8 0 12 4 9 9 -3 4 -7 8 -9 8 -2 0 -6
-4 -9 -8z"/>
<path d="M1810 19696 c0 -2 8 -10 18 -17 15 -13 16 -12 3 4 -13 16 -21 21 -21
13z"/>
<path d="M12316 19678 c3 -5 10 -6 15 -3 13 9 11 12 -6 12 -8 0 -12 -4 -9 -9z"/>
<path d="M8550 19286 c0 -2 7 -7 16 -10 8 -3 12 -2 9 4 -6 10 -25 14 -25 6z"/>
<path d="M16510 19096 c0 -2 8 -10 18 -17 15 -13 16 -12 3 4 -13 16 -21 21
-21 13z"/>
<path d="M12190 18961 c0 -6 4 -13 10 -16 6 -3 7 1 4 9 -7 18 -14 21 -14 7z"/>
<path d="M3035 18891 c-3 -5 -2 -12 3 -15 5 -3 9 1 9 9 0 17 -3 19 -12 6z"/>
<path d="M18715 18740 c-3 -5 -1 -10 4 -10 6 0 11 5 11 10 0 6 -2 10 -4 10 -3
0 -8 -4 -11 -10z"/>
<path d="M4946 18722 c-3 -5 1 -9 9 -9 8 0 12 4 9 9 -3 4 -7 8 -9 8 -2 0 -6
-4 -9 -8z"/>
<path d="M11020 18726 c0 -2 8 -10 18 -17 15 -13 16 -12 3 4 -13 16 -21 21
-21 13z"/>
<path d="M13154 18569 c-3 -6 -2 -15 3 -20 5 -5 9 -1 9 11 0 23 -2 24 -12 9z"/>
<path d="M8585 18440 c-3 -6 1 -7 9 -4 18 7 21 14 7 14 -6 0 -13 -4 -16 -10z"/>
<path d="M7795 18360 c-3 -5 -1 -10 4 -10 6 0 11 5 11 10 0 6 -2 10 -4 10 -3
0 -8 -4 -11 -10z"/>
<path d="M17667 18359 c7 -7 15 -10 18 -7 3 3 -2 9 -12 12 -14 6 -15 5 -6 -5z"/>
<path d="M2025 18320 c-3 -6 1 -7 9 -4 18 7 21 14 7 14 -6 0 -13 -4 -16 -10z"/>
<path d="M5720 18120 c-9 -6 -10 -10 -3 -10 6 0 15 5 18 10 8 12 4 12 -15 0z"/>
<path d="M6916 18113 c-6 -14 -5 -15 5 -6 7 7 10 15 7 18 -3 3 -9 -2 -12 -12z"/>
<path d="M17555 18121 c-3 -5 -2 -12 3 -15 5 -3 9 1 9 9 0 17 -3 19 -12 6z"/>
<path d="M3653 18085 c0 -8 4 -12 9 -9 5 3 6 10 3 15 -9 13 -12 11 -12 -6z"/>
<path d="M8276 18078 c3 -5 10 -6 15 -3 13 9 11 12 -6 12 -8 0 -12 -4 -9 -9z"/>
<path d="M3600 18040 c-9 -6 -10 -10 -3 -10 6 0 15 5 18 10 8 12 4 12 -15 0z"/>
<path d="M2436 17958 c3 -5 10 -6 15 -3 13 9 11 12 -6 12 -8 0 -12 -4 -9 -9z"/>
<path d="M2706 17838 c3 -5 10 -6 15 -3 13 9 11 12 -6 12 -8 0 -12 -4 -9 -9z"/>
<path d="M4626 17838 c3 -5 10 -6 15 -3 13 9 11 12 -6 12 -8 0 -12 -4 -9 -9z"/>
<path d="M13360 17760 c-9 -6 -10 -10 -3 -10 6 0 15 5 18 10 8 12 4 12 -15 0z"/>
<path d="M9233 17725 c0 -8 4 -12 9 -9 5 3 6 10 3 15 -9 13 -12 11 -12 -6z"/>
<path d="M5150 17726 c0 -2 7 -7 16 -10 8 -3 12 -2 9 4 -6 10 -25 14 -25 6z"/>
<path d="M5230 17640 c0 -5 5 -10 11 -10 5 0 7 5 4 10 -3 6 -8 10 -11 10 -2 0
-4 -4 -4 -10z"/>
<path d="M3710 17480 c0 -5 5 -10 11 -10 5 0 7 5 4 10 -3 6 -8 10 -11 10 -2 0
-4 -4 -4 -10z"/>
<path d="M19316 17402 c-3 -5 1 -9 9 -9 8 0 12 4 9 9 -3 4 -7 8 -9 8 -2 0 -6
-4 -9 -8z"/>
<path d="M14916 17233 c-6 -14 -5 -15 5 -6 7 7 10 15 7 18 -3 3 -9 -2 -12 -12z"/>
<path d="M13830 17136 c0 -2 8 -10 18 -17 15 -13 16 -12 3 4 -13 16 -21 21
-21 13z"/>
<path d="M5170 16880 c0 -5 5 -10 11 -10 5 0 7 5 4 10 -3 6 -8 10 -11 10 -2 0
-4 -4 -4 -10z"/>
<path d="M10420 16815 c0 -6 -85 -11 -233 -11 -127 -1 -272 -5 -322 -10 -49
-4 -120 -8 -157 -8 -38 -1 -68 -4 -68 -7 0 -3 -12 -6 -27 -6 -16 0 -46 -4 -68
-8 -22 -4 -52 -8 -67 -9 -16 0 -29 -3 -29 -6 -1 -3 -3 -14 -5 -25 -1 -11 -5
-31 -9 -45 -3 -14 -8 -36 -10 -50 -2 -14 -6 -34 -9 -45 -2 -11 -12 -51 -21
-90 -9 -38 -18 -83 -20 -98 -7 -53 -15 -103 -21 -127 -3 -14 -7 -43 -10 -65
-3 -22 -9 -53 -14 -70 -8 -30 -22 -96 -26 -125 -1 -8 -7 -35 -14 -60 -18 -60
-21 -72 -24 -90 -10 -56 -19 -64 -101 -74 -16 -3 -50 -9 -75 -16 -25 -6 -58
-13 -75 -16 -16 -3 -38 -10 -47 -15 -10 -5 -18 -7 -18 -4 0 2 -17 -2 -37 -10
-21 -7 -58 -20 -83 -26 -25 -7 -47 -13 -50 -14 -3 -1 -25 -7 -50 -14 -90 -25
-217 -64 -285 -88 -111 -40 -107 -40 -151 13 -21 27 -51 61 -67 77 -15 15 -24
33 -21 39 4 6 3 8 -3 5 -5 -4 -30 17 -54 44 -75 86 -215 240 -286 315 -18 19
-33 36 -33 38 0 5 -47 60 -91 107 -37 39 -37 39 -75 25 -22 -8 -82 -35 -134
-60 -52 -26 -100 -44 -108 -41 -7 2 -11 1 -8 -3 5 -8 -131 -82 -148 -81 -5 0
-12 -3 -15 -8 -3 -5 -26 -19 -51 -32 -25 -13 -47 -26 -50 -30 -3 -3 -26 -17
-52 -31 -27 -13 -48 -29 -48 -34 0 -5 -3 -6 -7 -3 -3 4 -12 2 -20 -4 -7 -6
-13 -8 -13 -5 0 4 -6 2 -12 -4 -7 -6 -69 -45 -138 -87 -69 -42 -127 -79 -130
-83 -17 -20 -113 -80 -121 -75 -5 4 -8 2 -7 -3 4 -14 -71 -64 -84 -56 -6 4 -8
3 -5 -3 3 -5 -3 -17 -14 -26 -10 -9 -19 -14 -19 -11 0 3 -6 -1 -13 -8 -8 -7
-37 -32 -65 -56 -28 -24 -49 -49 -47 -55 2 -7 15 -50 30 -97 14 -47 29 -92 32
-100 3 -8 7 -19 7 -25 1 -5 10 -37 20 -70 10 -33 19 -64 21 -70 1 -5 5 -17 8
-25 5 -15 48 -155 53 -175 2 -5 10 -31 18 -57 8 -27 12 -48 8 -48 -4 0 -2 -4
4 -8 5 -4 18 -34 28 -67 9 -33 23 -74 30 -90 34 -78 32 -85 -41 -150 -36 -33
-96 -88 -131 -122 -36 -34 -69 -60 -75 -56 -6 3 -7 1 -3 -5 4 -7 -27 -46 -76
-95 -114 -115 -242 -258 -261 -293 -14 -25 -51 -19 -277 45 -36 10 -114 32
-175 49 -60 17 -125 35 -142 40 -18 6 -33 8 -33 5 0 -3 -6 -1 -12 4 -7 6 -35
16 -63 23 -27 7 -54 16 -60 19 -5 3 -19 7 -30 9 -25 4 -36 7 -55 15 -8 3 -37
12 -63 21 -45 14 -49 14 -65 -3 -32 -33 -52 -61 -52 -71 0 -5 -6 -13 -12 -17
-7 -4 -17 -16 -23 -25 -5 -9 -40 -62 -78 -117 -37 -55 -70 -108 -74 -118 -3
-10 -21 -38 -38 -63 -38 -53 -108 -176 -178 -310 -27 -52 -53 -100 -59 -107
-5 -7 -11 -18 -12 -25 -7 -34 -83 -177 -91 -171 -4 5 -5 2 -1 -4 4 -7 1 -25
-7 -40 -15 -28 -19 -38 -57 -128 -38 -90 -42 -100 -51 -117 -6 -12 5 -29 49
-72 32 -31 70 -66 86 -78 16 -13 74 -66 130 -119 55 -53 137 -128 181 -166 44
-39 122 -111 174 -160 l94 -89 -12 -35 c-6 -20 -13 -45 -16 -55 -2 -10 -22
-82 -45 -159 -22 -77 -42 -147 -44 -155 -2 -8 -6 -22 -9 -30 -3 -8 -9 -28 -13
-45 -4 -16 -8 -34 -10 -40 -7 -28 -36 -164 -40 -194 -3 -18 -7 -43 -10 -54 -2
-12 -6 -39 -10 -62 -5 -38 -22 -70 -31 -61 -3 2 -28 -2 -56 -11 -29 -8 -61
-17 -72 -19 -11 -2 -47 -10 -80 -18 -33 -9 -69 -18 -80 -20 -11 -2 -55 -11
-97 -20 -43 -9 -93 -18 -110 -20 -18 -3 -33 -5 -33 -6 0 -2 -35 -10 -60 -13
-12 -2 -26 -6 -31 -10 -14 -8 -73 -20 -106 -21 -14 -1 -24 -4 -22 -7 5 -9 -56
-20 -67 -13 -5 3 -9 0 -9 -7 0 -7 -10 -9 -25 -7 -13 3 -26 1 -28 -5 -1 -5 -16
-10 -33 -10 -17 -1 -31 -6 -31 -12 -1 -25 -13 -132 -17 -155 -10 -60 -18 -143
-23 -250 -9 -163 -9 -650 0 -745 11 -131 18 -198 23 -225 6 -30 11 -75 13
-112 1 -17 10 -34 26 -44 19 -13 211 -67 315 -89 8 -2 15 -4 15 -5 0 -2 33 -9
70 -14 17 -3 30 -5 30 -6 0 -2 22 -6 68 -14 87 -14 435 -100 444 -110 2 -2 6
-21 8 -42 10 -84 18 -126 62 -324 25 -113 49 -209 54 -214 5 -6 9 -18 9 -27 0
-10 5 -30 12 -46 6 -15 12 -30 13 -33 1 -3 10 -32 20 -65 11 -33 20 -62 20
-65 1 -3 4 -12 8 -20 14 -38 11 -46 -32 -83 -84 -72 -172 -151 -232 -210 -32
-31 -59 -56 -59 -54 0 2 -42 -37 -94 -87 -52 -50 -122 -116 -157 -146 -34 -30
-72 -64 -83 -75 -12 -11 -25 -19 -31 -17 -5 2 -7 0 -3 -3 4 -4 3 -16 -2 -26
-8 -13 2 -45 39 -131 26 -62 60 -137 75 -165 14 -29 23 -53 19 -53 -5 0 -3 -4
2 -8 6 -4 20 -27 31 -52 11 -25 42 -87 69 -139 28 -52 68 -129 90 -171 22 -43
46 -84 52 -92 7 -8 10 -18 6 -21 -3 -4 -1 -7 5 -7 7 0 12 -4 12 -9 0 -11 122
-213 156 -258 13 -17 24 -36 24 -42 0 -6 5 -11 10 -11 6 0 10 -6 10 -14 0 -7
7 -19 15 -26 9 -7 14 -19 11 -27 -3 -8 -2 -11 4 -8 11 7 32 -29 22 -40 -4 -5
-2 -5 4 -2 7 4 23 -10 39 -32 32 -47 44 -53 84 -41 17 5 31 6 31 2 0 -4 4 -2
8 3 5 8 161 65 192 70 3 1 25 7 50 15 25 7 52 15 60 18 8 2 27 5 42 6 14 0 24
3 22 5 -4 4 117 48 153 54 10 2 29 9 43 14 32 13 166 54 197 59 12 2 34 9 48
14 54 20 72 13 117 -47 24 -32 49 -62 55 -66 7 -4 13 -12 13 -16 0 -5 21 -31
47 -59 27 -27 69 -72 94 -98 26 -27 118 -119 205 -205 l159 -157 -14 -38 c-7
-22 -16 -46 -19 -54 -3 -8 -6 -20 -7 -25 -4 -19 -85 -259 -94 -280 -11 -24
-74 -224 -77 -244 -2 -8 -22 -75 -45 -149 l-42 -134 29 -27 c50 -46 118 -98
184 -144 127 -85 275 -191 278 -199 2 -4 10 -8 17 -8 7 0 27 -11 43 -25 17
-14 32 -25 35 -25 9 0 112 -65 115 -72 2 -5 10 -8 18 -8 12 0 88 -44 104 -60
11 -11 409 -212 481 -243 44 -19 66 -8 122 63 21 26 46 56 55 67 10 10 53 59
97 108 44 50 87 97 95 105 8 8 32 34 52 57 20 23 39 39 42 35 3 -3 6 0 6 7 0
6 10 22 23 35 12 12 47 51 78 87 31 35 75 83 98 106 39 39 44 41 69 31 15 -7
32 -15 37 -18 6 -4 33 -13 60 -20 28 -7 56 -17 63 -23 6 -5 12 -7 12 -4 0 2
57 -13 128 -35 70 -21 132 -40 137 -42 6 -2 17 -6 25 -9 27 -11 284 -76 324
-83 43 -6 86 -21 86 -28 0 -6 55 -280 74 -366 8 -36 17 -81 20 -100 3 -19 12
-69 21 -110 9 -41 19 -86 21 -100 19 -100 56 -245 64 -255 10 -12 33 -17 135
-30 87 -12 231 -26 320 -32 111 -6 594 -7 660 0 82 9 165 16 260 22 193 14
209 20 221 93 4 26 8 49 9 52 0 3 5 28 10 55 4 28 10 57 12 65 2 8 6 24 8 35
2 11 13 70 25 130 12 61 24 121 26 134 3 13 12 54 20 90 8 36 17 77 20 91 3
14 6 33 7 43 1 9 4 17 8 17 4 0 7 12 7 28 0 27 26 140 33 146 2 1 58 15 124
30 119 27 266 68 316 87 14 6 35 11 47 12 12 1 22 5 22 9 0 4 7 8 15 8 16 0
47 10 240 77 l129 45 41 -45 c22 -25 56 -65 75 -88 19 -24 49 -58 65 -75 17
-17 66 -71 110 -120 44 -48 87 -95 95 -104 16 -16 149 -167 185 -209 58 -68
79 -82 115 -76 45 8 328 150 507 254 130 76 354 217 380 240 7 6 15 11 19 11
4 0 48 31 98 68 50 38 107 79 126 92 19 14 40 28 45 33 6 4 37 28 70 53 33 25
63 51 66 57 4 7 -9 59 -28 117 -19 58 -36 110 -37 115 -1 6 -24 77 -50 158
-26 81 -49 153 -50 160 -1 7 -4 17 -7 22 -3 6 -11 30 -18 55 -7 25 -18 56 -23
70 -6 14 -12 36 -15 49 -2 14 -7 29 -11 35 -4 6 -7 13 -8 16 -10 57 -19 90
-29 109 -12 23 -9 28 38 70 28 25 54 45 59 43 5 -1 7 1 4 6 -3 5 18 32 47 59
29 28 67 67 86 87 18 19 38 33 42 30 5 -3 8 -2 7 3 -2 4 31 42 72 84 41 41 98
101 125 133 28 32 63 72 78 90 16 17 38 43 50 58 20 25 46 40 33 19 -3 -4 6
-6 21 -3 19 4 24 2 18 -8 -5 -9 -4 -11 4 -6 12 8 128 -25 256 -71 39 -14 77
-27 85 -28 8 -1 22 -5 30 -8 8 -3 35 -11 60 -17 25 -7 132 -40 238 -75 164
-54 197 -62 218 -53 13 6 24 17 24 25 0 7 3 13 8 13 4 0 12 9 17 19 6 11 50
80 100 153 49 73 92 138 95 143 3 6 21 35 41 65 20 30 50 80 66 110 115 207
141 249 146 244 3 -3 4 1 4 8 -1 7 14 45 33 83 18 39 35 76 36 83 1 8 9 21 18
30 8 10 14 19 14 22 -1 3 12 34 29 70 17 36 34 76 38 90 4 14 21 52 38 84 16
33 30 69 31 81 1 21 -82 125 -99 125 -4 0 -29 22 -57 50 -27 27 -75 72 -105
100 -33 30 -51 54 -47 61 4 7 3 9 -3 6 -11 -7 -66 32 -113 81 -15 15 -64 61
-110 102 -126 114 -180 167 -174 173 3 3 7 11 8 19 2 7 6 20 9 28 7 20 49 152
51 165 1 6 14 48 29 95 25 80 66 241 72 285 2 11 8 39 13 62 5 23 7 44 4 48
-3 3 -1 5 4 5 5 0 10 17 11 38 2 46 11 114 15 117 5 3 122 36 148 41 14 3 43
10 65 16 51 14 64 18 95 23 14 2 54 11 90 19 36 9 83 18 105 21 22 4 58 11 80
17 22 6 45 12 50 14 6 1 62 14 125 30 63 15 118 28 122 28 3 1 10 4 14 8 4 4
14 2 22 -5 11 -8 14 -8 9 0 -4 7 1 14 13 18 11 3 20 14 21 23 0 9 2 26 4 37
41 205 62 726 41 985 -16 193 -24 285 -30 315 -8 42 -20 151 -17 163 1 6 -3
13 -9 13 -19 3 -25 4 -35 10 -5 3 -46 14 -90 25 -44 10 -83 23 -87 29 -4 5 -8
7 -8 3 0 -3 -24 0 -52 8 -29 8 -69 17 -88 20 -19 3 -39 8 -43 11 -4 2 -24 6
-45 9 -20 2 -116 23 -212 45 -309 73 -291 64 -305 154 -5 28 -9 52 -10 55 -1
3 -7 32 -15 65 -7 33 -15 65 -16 70 -1 6 -4 21 -7 35 -3 14 -12 56 -21 93 -9
38 -14 73 -10 78 3 5 0 9 -7 9 -6 0 -9 8 -6 20 3 10 1 20 -3 22 -5 2 -10 14
-12 28 -2 14 -7 31 -11 38 -5 6 -6 12 -3 12 3 0 -6 30 -20 68 -14 37 -27 78
-28 92 -2 14 -8 39 -15 55 -6 17 -13 35 -16 42 -5 15 21 43 140 149 55 48 107
96 116 106 9 10 19 18 23 18 3 0 22 16 40 35 19 19 36 35 38 35 2 0 40 35 84
78 120 116 176 162 187 155 6 -3 7 -2 4 4 -3 5 16 30 43 55 46 43 48 46 34 67
-8 11 -13 21 -10 21 3 0 -10 30 -29 68 -19 37 -35 70 -35 75 0 4 -18 46 -41
94 -22 47 -41 94 -42 104 -1 11 -4 19 -8 19 -4 0 -32 51 -63 113 -71 139 -88
170 -101 179 -5 4 -7 8 -3 8 8 0 -42 95 -79 150 -12 19 -23 40 -23 47 0 7 -3
13 -7 13 -12 0 -44 61 -37 71 3 5 0 8 -8 7 -7 -2 -12 5 -12 14 1 10 -2 16 -6
13 -4 -3 -17 10 -29 28 -36 56 -45 71 -74 114 -15 24 -25 48 -21 55 4 7 3 8
-4 4 -6 -4 -16 4 -23 16 -7 13 -18 27 -25 31 -8 4 -14 15 -14 22 0 8 -4 15 -8
15 -5 0 -15 11 -22 25 -9 17 -19 23 -31 20 -10 -3 -26 -8 -36 -10 -10 -2 -46
-13 -80 -24 -35 -10 -63 -16 -63 -13 0 4 -4 2 -8 -5 -4 -6 -21 -13 -39 -16
-17 -3 -37 -8 -42 -12 -6 -3 -21 -8 -33 -11 -29 -7 -39 -10 -58 -17 -14 -6
-86 -25 -120 -32 -8 -2 -60 -17 -115 -34 -55 -16 -111 -32 -125 -35 -14 -3
-64 -16 -112 -29 -101 -27 -84 -34 -178 73 -30 34 -66 74 -79 88 -62 71 -308
315 -382 382 -46 41 -87 79 -90 84 -4 5 10 58 31 117 21 60 36 109 34 109 -3
0 2 13 10 28 8 16 27 71 42 123 14 52 29 99 32 104 6 10 10 23 16 55 2 8 6 22
9 30 12 29 88 271 93 293 15 72 14 81 -19 110 -18 16 -42 36 -55 44 -15 10
-21 22 -17 32 5 12 3 13 -5 5 -9 -9 -32 2 -93 44 -45 31 -84 59 -87 63 -3 3
-19 14 -37 23 -18 9 -45 28 -60 44 -15 15 -30 26 -33 25 -3 0 -4 3 -2 9 1 5
-2 7 -7 3 -10 -5 -118 59 -133 80 -4 5 -8 6 -8 1 0 -5 -8 -2 -17 6 -10 8 -47
31 -83 50 -108 59 -130 73 -130 81 0 4 -9 7 -19 7 -11 0 -22 3 -24 8 -3 4 -45
27 -94 52 -48 25 -91 49 -94 53 -3 5 -9 8 -13 7 -4 -1 -30 9 -59 23 -29 14
-72 35 -97 47 -25 12 -66 30 -91 40 -46 19 -47 19 -70 -3 -13 -12 -28 -20 -34
-19 -5 2 -7 0 -3 -4 4 -4 -6 -23 -23 -43 -84 -98 -137 -158 -171 -194 -21 -22
-38 -43 -38 -48 0 -9 -15 -13 -33 -10 -5 1 -6 -3 -3 -8 4 -5 1 -15 -6 -23 -7
-7 -30 -32 -50 -55 -20 -23 -39 -39 -42 -35 -3 3 -6 0 -6 -7 0 -17 -28 -44
-39 -37 -5 3 -8 0 -7 -8 0 -7 -24 -42 -55 -77 -31 -35 -68 -77 -82 -94 -23
-27 -28 -29 -47 -17 -18 11 -21 11 -14 0 6 -9 3 -9 -10 2 -10 8 -24 15 -32 17
-8 2 -20 4 -26 6 -20 5 -91 28 -108 35 -16 6 -28 9 -48 11 -7 0 -11 5 -8 10 3
5 -5 9 -17 9 -25 0 -168 42 -177 51 -3 3 -20 7 -39 9 -19 1 -41 7 -48 14 -7 6
-13 8 -13 5 0 -2 -33 4 -72 15 -86 23 -89 23 -193 43 -44 9 -85 21 -91 28 -9
9 -60 228 -69 297 -1 8 -5 22 -8 30 -3 8 -11 44 -17 80 -24 133 -39 207 -55
275 -23 97 -24 101 -37 180 -6 39 -12 72 -14 74 -4 4 -42 10 -84 14 -14 1 -31
6 -37 10 -8 5 -13 3 -13 -3 0 -6 -4 -9 -8 -6 -18 11 -230 31 -397 38 -33 1
-63 7 -67 13 -5 6 -8 6 -8 0z m70 -400 c58 -4 129 -8 159 -9 47 -1 55 -4 63
-26 12 -29 37 -141 43 -185 2 -16 11 -59 20 -95 32 -131 54 -226 66 -290 16
-78 14 -69 22 -100 4 -14 9 -36 11 -50 3 -14 9 -40 15 -59 6 -18 10 -36 9 -40
0 -3 1 -8 2 -11 1 -3 3 -13 6 -22 2 -10 6 -26 8 -35 3 -10 5 -21 5 -24 1 -6
118 -28 186 -35 17 -1 30 -3 30 -4 0 -1 14 -4 30 -6 55 -8 260 -57 265 -63 3
-3 14 -7 25 -8 48 -4 371 -99 385 -113 3 -3 10 -5 15 -5 6 0 36 -8 68 -18 37
-11 55 -22 51 -29 -5 -7 -3 -8 5 -3 7 4 23 3 34 -3 46 -23 207 -82 225 -82 9
0 29 13 42 28 110 126 165 180 173 175 6 -3 7 -2 4 3 -3 6 20 37 51 70 31 33
89 96 128 140 40 43 89 98 110 121 22 23 61 66 87 97 34 38 53 53 65 49 31
-10 187 -86 212 -103 14 -9 61 -36 105 -60 86 -46 188 -110 193 -122 2 -5 8
-8 14 -8 6 0 27 -13 48 -30 21 -16 40 -30 43 -30 6 0 85 -53 135 -90 17 -13
32 -32 32 -41 0 -9 -13 -57 -28 -106 -16 -48 -37 -115 -47 -148 -10 -33 -21
-64 -25 -70 -4 -5 -13 -34 -21 -62 -7 -29 -17 -53 -21 -53 -5 0 -7 -4 -3 -10
3 -5 -1 -25 -9 -45 -8 -19 -13 -35 -10 -35 2 0 -2 -13 -11 -30 -9 -16 -13 -30
-11 -30 3 0 -4 -26 -15 -57 -11 -32 -22 -68 -23 -80 -2 -13 -8 -29 -14 -36 -7
-7 -13 -22 -15 -33 -1 -10 -5 -24 -9 -29 -3 -6 -9 -26 -12 -45 -6 -34 -4 -37
70 -94 42 -33 104 -85 138 -117 33 -31 75 -69 91 -84 17 -15 29 -31 28 -36 -2
-5 2 -9 7 -9 11 0 148 -127 199 -184 45 -50 82 -89 127 -138 24 -26 44 -49 44
-52 0 -3 13 -19 30 -36 16 -16 49 -56 72 -88 24 -31 46 -58 51 -60 4 -2 7 -8
7 -12 0 -5 10 -19 23 -32 12 -13 30 -35 41 -49 l18 -26 102 34 c55 18 144 45
196 59 81 21 281 83 330 101 19 8 29 10 60 16 14 3 25 6 25 7 0 1 7 3 15 5 20
4 85 22 143 40 l47 14 48 -72 c27 -40 51 -80 55 -89 3 -10 33 -62 66 -117 34
-55 61 -104 61 -109 0 -5 9 -19 20 -32 11 -13 20 -31 20 -41 0 -9 3 -19 8 -21
13 -6 82 -145 75 -151 -3 -4 -2 -7 4 -7 6 0 27 -36 47 -81 l37 -81 -58 -59
c-32 -33 -64 -57 -70 -54 -7 2 -12 1 -10 -4 3 -12 -73 -82 -84 -76 -5 4 -8 2
-7 -2 2 -5 -12 -26 -29 -47 -18 -20 -33 -33 -33 -29 0 4 -6 -1 -13 -12 -9 -11
-19 -15 -27 -10 -8 5 -11 4 -7 -1 5 -9 -44 -58 -210 -211 -20 -18 -40 -30 -44
-27 -5 3 -8 2 -7 -3 2 -5 -21 -32 -49 -61 -29 -30 -53 -61 -53 -70 0 -9 17
-63 39 -118 21 -56 42 -115 46 -130 5 -16 9 -31 10 -34 1 -3 9 -32 19 -65 10
-33 26 -87 36 -120 10 -33 22 -74 25 -90 7 -35 10 -45 18 -65 4 -8 8 -26 11
-40 2 -14 12 -59 21 -100 10 -41 18 -86 20 -100 1 -14 7 -44 14 -68 7 -24 14
-60 17 -80 2 -20 9 -52 14 -72 5 -19 11 -51 14 -70 2 -19 8 -55 11 -80 7 -51
12 -58 40 -63 11 -1 25 -5 30 -8 6 -4 35 -12 65 -18 30 -7 62 -15 70 -18 8 -3
21 -7 28 -9 34 -7 270 -66 298 -75 17 -5 40 -9 52 -9 12 0 22 -3 22 -7 0 -5
10 -8 23 -9 12 0 36 -3 52 -7 17 -3 43 -9 59 -12 16 -3 55 -12 87 -19 32 -8
60 -11 63 -8 3 3 6 -1 6 -8 0 -7 3 -11 6 -7 3 3 18 1 33 -4 l27 -9 4 -123 c7
-214 5 -549 -3 -642 -4 -49 -8 -100 -7 -112 0 -13 -5 -23 -11 -23 -5 0 -7 -5
-3 -11 3 -6 -1 -10 -12 -9 -11 1 -21 1 -24 0 -3 -1 -16 -4 -30 -6 -14 -3 -43
-9 -65 -15 -38 -11 -50 -13 -105 -24 -21 -4 -92 -22 -165 -41 -11 -2 -31 -7
-45 -9 -14 -2 -52 -11 -86 -19 -34 -8 -72 -17 -85 -20 -13 -3 -51 -13 -84 -22
-33 -8 -68 -16 -77 -15 -10 0 -20 -4 -23 -9 -3 -5 -26 -12 -50 -16 -80 -11
-90 -27 -104 -156 -7 -62 -17 -131 -21 -153 -5 -22 -11 -53 -14 -70 -5 -28
-20 -99 -32 -155 -3 -14 -16 -68 -30 -120 -13 -52 -26 -102 -28 -110 -17 -69
-39 -130 -47 -130 -6 0 -8 -4 -5 -9 4 -5 1 -22 -5 -38 -6 -15 -12 -36 -14 -45
-6 -29 -57 -182 -71 -215 -8 -18 -21 -51 -29 -72 l-14 -40 52 -53 c29 -29 91
-89 139 -133 47 -44 84 -83 81 -87 -2 -5 3 -8 11 -8 8 0 23 -11 33 -23 10 -13
24 -26 30 -28 7 -2 53 -42 104 -89 143 -132 192 -177 223 -203 42 -36 37 -52
-76 -282 -27 -55 -53 -107 -58 -115 -5 -8 -42 -71 -82 -140 -98 -172 -186
-300 -204 -300 -9 0 -12 5 -8 12 4 7 3 8 -4 4 -11 -7 -93 16 -275 75 -49 16
-95 29 -103 29 -8 0 -12 4 -9 10 3 5 0 7 -8 4 -7 -2 -27 1 -43 7 -16 7 -35 11
-41 10 -7 -1 -13 2 -13 7 0 5 -10 8 -22 7 -13 -1 -29 2 -35 8 -7 5 -13 6 -13
3 0 -4 -6 -4 -12 1 -7 4 -17 8 -23 9 -5 1 -43 11 -82 22 -40 12 -73 18 -73 14
0 -4 -4 -2 -8 4 -4 6 -36 18 -71 28 l-63 18 -25 -24 c-14 -13 -58 -66 -98
-118 -40 -52 -87 -110 -104 -128 -17 -18 -31 -35 -31 -38 0 -3 -10 -15 -22
-28 -13 -12 -38 -39 -56 -60 -19 -21 -37 -34 -44 -30 -7 4 -8 3 -4 -5 10 -16
-144 -173 -162 -166 -7 3 -10 0 -7 -5 8 -12 -45 -71 -57 -64 -5 3 -7 2 -6 -3
3 -7 -37 -53 -46 -53 -2 0 -31 -26 -64 -57 -34 -32 -80 -74 -103 -93 -23 -19
-59 -51 -80 -71 l-39 -37 15 -50 c8 -27 22 -69 30 -91 8 -23 15 -45 15 -49 2
-17 24 -95 61 -209 22 -68 39 -124 39 -125 -1 -2 5 -21 13 -43 13 -35 79 -241
81 -255 1 -3 4 -9 8 -15 3 -5 10 -26 16 -46 9 -35 8 -38 -22 -60 -17 -13 -38
-28 -48 -34 -9 -5 -57 -38 -108 -73 -50 -34 -95 -62 -100 -62 -5 0 -10 -4 -12
-8 -6 -14 -99 -72 -108 -67 -4 3 -10 -1 -13 -8 -2 -6 -28 -23 -56 -37 -28 -14
-51 -28 -51 -32 0 -5 -4 -8 -9 -8 -4 0 -52 -25 -105 -56 -54 -31 -104 -53
-112 -50 -8 3 -13 2 -10 -3 6 -9 -15 -21 -35 -21 -13 0 -159 152 -159 165 0 2
-22 28 -50 57 -27 29 -58 62 -67 74 -10 11 -47 51 -83 90 -36 38 -90 97 -120
132 -149 170 -185 199 -210 171 -5 -5 -122 -49 -144 -54 -6 -1 -18 -5 -26 -8
-8 -4 -33 -13 -55 -21 -22 -8 -85 -31 -140 -51 -55 -20 -107 -38 -115 -40 -8
-2 -64 -18 -123 -35 -60 -17 -116 -33 -125 -35 -9 -2 -30 -8 -45 -14 -36 -14
-84 -24 -119 -25 -14 -1 -24 -4 -21 -8 2 -5 -5 -9 -16 -9 -12 -1 -24 -2 -28
-3 -7 -2 -42 -9 -98 -20 -11 -2 -57 -12 -102 -21 -45 -9 -90 -18 -100 -19 -16
-3 -22 -22 -77 -251 -5 -19 -31 -148 -42 -205 -21 -107 -91 -400 -102 -430 -6
-16 -9 -28 -11 -46 -1 -15 -39 -25 -46 -13 -3 4 -17 4 -30 -1 -18 -7 -25 -6
-25 3 0 7 -3 8 -8 2 -9 -13 -10 -13 -169 -21 -159 -8 -137 -8 -317 -1 -100 4
-141 9 -147 19 -6 9 -9 9 -9 1 0 -9 -17 -11 -62 -7 -35 3 -76 7 -93 8 -24 1
-30 7 -36 32 -3 17 -9 37 -14 44 -6 9 -4 11 6 5 11 -7 12 -6 3 6 -6 8 -26 77
-43 154 -18 77 -44 187 -57 245 -14 58 -34 146 -44 195 -11 50 -27 128 -37
175 l-18 84 -60 13 c-33 7 -80 15 -104 18 -24 2 -49 9 -56 15 -6 5 -14 7 -17
4 -3 -3 -46 4 -94 16 -49 12 -97 23 -106 25 -40 9 -175 47 -193 55 -11 5 -36
12 -55 16 -41 9 -41 9 -60 17 -8 3 -71 24 -140 47 -111 36 -191 65 -255 91
-11 4 -53 20 -94 34 -71 25 -75 25 -94 8 -29 -25 -117 -115 -117 -119 0 -2
-15 -19 -32 -38 -18 -20 -73 -80 -123 -135 -49 -54 -95 -98 -101 -96 -6 2 -11
-2 -10 -9 0 -7 -24 -40 -54 -73 -78 -85 -110 -122 -110 -128 0 -12 -84 -80
-99 -80 -23 -1 -51 17 -44 29 3 5 1 6 -5 2 -6 -4 -47 12 -92 34 -44 22 -83 40
-86 39 -3 0 -14 9 -24 21 -10 12 -20 20 -22 18 -2 -2 -35 16 -73 40 -39 24
-79 48 -90 55 -11 7 -22 14 -25 17 -3 3 -52 36 -110 74 -143 95 -227 156 -211
156 7 0 9 4 6 10 -3 5 2 35 12 67 9 32 16 61 15 66 -1 4 2 7 8 7 5 0 10 7 10
16 0 15 27 99 140 444 81 244 96 305 79 316 -6 3 -8 12 -5 20 3 8 0 11 -8 8
-7 -3 -20 1 -28 9 -7 8 -41 36 -73 62 -33 26 -82 69 -110 96 -93 89 -128 119
-138 119 -6 0 -8 3 -4 6 5 5 -19 31 -75 80 -24 20 -181 193 -231 254 -85 103
-141 169 -157 187 -11 12 -20 26 -20 30 0 4 -14 21 -30 37 -16 16 -27 32 -25
37 3 4 -4 10 -15 14 -11 3 -20 11 -20 16 0 6 -7 3 -16 -6 -9 -9 -23 -14 -30
-11 -8 3 -14 1 -14 -5 0 -6 -7 -9 -15 -5 -8 3 -15 1 -15 -4 0 -8 -22 -17 -62
-26 -5 -1 -9 -2 -10 -4 -2 -1 -10 -3 -18 -5 -8 -2 -40 -11 -70 -20 -30 -8 -62
-17 -70 -19 -8 -3 -15 -5 -15 -6 0 -1 -9 -3 -20 -5 -11 -2 -36 -8 -55 -14 -45
-14 -63 -14 -54 1 4 7 3 8 -5 4 -6 -4 -9 -11 -6 -16 7 -11 -153 -63 -167 -54
-6 4 -8 3 -5 -2 4 -8 -66 -31 -148 -50 -5 -1 -30 -9 -54 -18 -24 -9 -51 -16
-60 -16 -10 0 -45 45 -88 113 -87 136 -204 337 -197 337 3 0 -4 13 -15 29 -12
16 -21 32 -21 35 0 7 -55 130 -83 184 -19 37 -20 44 -7 53 13 10 13 10 -1 6
-10 -3 -19 4 -26 23 -9 25 -7 30 25 56 19 16 50 45 70 64 19 19 39 34 44 32 4
-1 7 2 6 6 -3 9 84 96 166 165 27 23 65 57 83 75 19 17 40 32 46 32 5 0 8 2 5
5 -3 3 24 34 60 68 153 145 184 179 177 195 -4 10 -11 31 -17 47 -5 17 -12 37
-16 45 -3 8 -6 17 -6 20 -1 3 -6 19 -13 35 -6 17 -15 39 -19 50 -4 11 -6 23
-6 28 1 4 -7 25 -17 46 -11 21 -18 41 -16 43 3 3 -6 36 -20 74 -37 104 -81
261 -101 359 -2 11 -6 31 -9 45 -26 121 -48 261 -49 308 0 12 -3 22 -6 22 -4
0 -6 24 -6 54 1 30 -2 52 -6 49 -5 -2 -8 5 -8 17 0 22 -46 47 -100 56 -14 3
-34 9 -45 14 -11 5 -60 18 -110 30 -49 12 -106 25 -125 30 -19 5 -46 11 -60
13 -14 3 -43 10 -65 15 -22 6 -54 14 -72 17 -18 3 -43 9 -57 15 -15 5 -26 7
-26 4 0 -3 -6 -2 -12 2 -7 5 -19 9 -28 10 -13 2 -175 35 -237 49 -12 3 -22 13
-22 23 1 9 -2 53 -5 97 -10 120 -6 650 3 650 2 0 3 33 4 72 1 84 -3 81 132
107 11 2 40 10 65 17 25 7 48 12 53 11 7 -2 67 11 112 24 11 4 31 8 45 9 14 2
25 4 25 5 0 1 7 3 15 5 8 2 45 10 81 19 37 8 79 17 93 20 14 3 29 7 34 10 5 3
73 22 153 42 128 32 189 54 150 54 -7 0 -10 3 -8 8 5 7 11 38 23 122 3 19 7
42 9 50 2 8 6 29 9 45 5 32 19 117 21 125 5 22 16 90 15 92 -1 2 4 17 10 33 7
17 18 57 25 90 47 203 128 489 156 550 24 53 56 159 52 175 -3 10 -34 44 -70
76 -37 33 -78 70 -92 83 -122 111 -193 177 -257 238 -40 40 -74 70 -74 67 0
-3 -6 1 -14 8 -30 30 -76 68 -81 68 -8 0 -105 103 -105 112 0 5 4 16 9 26 10
17 112 220 141 280 9 18 20 29 25 25 4 -4 5 -3 1 4 -8 14 13 63 27 63 6 0 8 3
4 6 -3 3 10 31 29 62 19 32 34 62 34 68 0 6 6 17 14 23 8 7 24 31 36 54 19 36
33 56 80 113 5 7 6 15 3 18 -4 3 -1 6 6 6 7 0 10 4 7 9 -8 12 31 44 44 36 5
-3 21 -8 35 -11 13 -2 37 -9 52 -16 37 -15 42 -16 83 -23 19 -4 105 -29 190
-56 85 -27 171 -54 190 -59 67 -18 345 -103 354 -108 5 -3 6 0 2 6 -4 7 -3 12
1 12 5 0 17 13 26 30 10 16 23 35 30 42 7 7 31 38 54 70 23 31 54 69 69 85 14
15 45 50 67 76 80 93 138 152 148 149 6 -1 8 2 4 8 -8 13 176 191 192 185 7
-2 10 2 7 9 -5 14 133 143 148 138 5 -1 7 2 4 6 -3 5 6 18 20 28 15 11 32 25
40 32 7 7 35 29 61 49 84 64 82 45 20 231 -55 164 -115 352 -121 382 -2 8 -9
29 -16 45 -34 81 -101 309 -92 316 58 48 101 79 110 79 6 0 12 3 14 8 4 10
231 162 293 197 239 133 347 188 371 188 23 0 82 -58 76 -76 -1 -5 2 -6 7 -2
6 3 15 -4 21 -15 6 -11 34 -44 63 -74 60 -61 111 -116 187 -201 55 -62 188
-208 251 -275 42 -45 52 -45 152 -4 34 13 67 22 75 19 7 -2 11 -1 8 3 -5 8
113 59 154 67 10 2 27 8 37 13 10 6 20 10 23 10 8 1 29 8 95 31 33 12 69 23
80 26 11 2 58 16 105 30 88 27 104 32 155 41 17 3 53 11 82 18 38 10 54 11 64
2 9 -8 10 -8 5 2 -5 8 1 13 16 14 53 4 64 6 78 11 37 13 60 15 53 4 -5 -9 -3
-9 8 -1 8 6 26 11 42 10 15 -1 27 1 27 4 0 3 15 7 33 8 73 6 86 13 92 53 4 36
13 81 31 156 24 102 25 106 29 128 2 11 17 85 34 163 38 174 39 181 40 210 1
13 4 21 9 19 4 -3 7 8 6 24 0 17 5 53 12 80 7 28 12 64 10 80 -2 17 -1 27 2
24 3 -2 11 0 18 6 8 6 40 13 71 14 88 5 238 16 240 19 5 4 301 -2 403 -9z
m4920 -2729 c0 -3 -4 -8 -10 -11 -5 -3 -10 -1 -10 4 0 6 5 11 10 11 6 0 10 -2
10 -4z m-10240 -5002 c0 -8 -19 -13 -24 -6 -3 5 1 9 9 9 8 0 15 -2 15 -3z"/>
<path d="M10716 15527 c3 -10 9 -15 12 -12 3 3 0 11 -7 18 -10 9 -11 8 -5 -6z"/>
<path d="M12790 15426 c0 -2 7 -7 16 -10 8 -3 12 -2 9 4 -6 10 -25 14 -25 6z"/>
<path d="M13265 15240 c-3 -6 1 -7 9 -4 18 7 21 14 7 14 -6 0 -13 -4 -16 -10z"/>
<path d="M10087 14873 c-1 0 -51 -4 -112 -8 -103 -5 -160 -10 -245 -20 -19 -2
-58 -7 -86 -10 -28 -3 -61 -8 -74 -10 -13 -3 -40 -7 -60 -10 -20 -3 -47 -8
-60 -10 -14 -3 -38 -8 -55 -11 -16 -2 -48 -10 -69 -15 -22 -6 -51 -12 -65 -14
-14 -2 -27 -4 -28 -6 -3 -2 -6 -2 -53 -13 -39 -9 -101 -26 -205 -57 -38 -11
-79 -22 -90 -25 -11 -2 -56 -17 -99 -34 -44 -17 -85 -29 -93 -26 -7 3 -12 0
-10 -6 1 -7 -2 -13 -8 -13 -16 -2 -56 -16 -110 -40 -27 -12 -72 -30 -100 -40
-27 -10 -70 -30 -95 -45 -25 -14 -99 -54 -166 -87 -66 -34 -136 -71 -155 -82
-19 -12 -45 -26 -59 -33 -14 -7 -27 -15 -30 -18 -3 -4 -57 -39 -121 -78 -64
-39 -122 -78 -129 -87 -7 -8 -18 -15 -25 -15 -8 0 -15 -4 -17 -8 -6 -16 -90
-72 -99 -66 -5 3 -8 1 -7 -4 4 -13 -98 -92 -108 -84 -4 4 -4 1 0 -5 4 -7 3
-13 -1 -13 -5 0 -22 -12 -39 -27 -83 -75 -100 -88 -109 -85 -5 2 -7 1 -3 -3 7
-7 -22 -45 -35 -45 -5 0 -24 -16 -43 -36 -19 -20 -34 -33 -34 -28 0 5 -5 1
-11 -9 -6 -9 -15 -15 -20 -11 -5 3 -8 1 -7 -4 2 -5 -55 -70 -126 -145 -90 -95
-133 -134 -145 -130 -14 4 -14 3 -1 -6 12 -8 10 -15 -15 -42 -41 -44 -45 -50
-83 -97 -19 -23 -41 -50 -50 -61 -10 -11 -26 -32 -37 -47 -11 -15 -29 -39 -41
-53 -11 -14 -36 -48 -54 -76 -132 -195 -180 -269 -185 -286 -4 -11 -11 -17
-16 -13 -5 3 -8 2 -7 -3 5 -15 -44 -103 -54 -97 -5 3 -7 2 -6 -3 2 -4 -34 -80
-79 -169 -45 -88 -93 -189 -107 -225 -15 -35 -31 -72 -36 -82 -17 -30 -117
-298 -146 -392 -30 -97 -30 -99 -38 -133 -3 -12 -7 -26 -10 -30 -3 -5 -7 -19
-10 -33 -3 -13 -12 -49 -21 -79 -8 -30 -17 -66 -20 -80 -5 -33 -13 -67 -19
-88 -3 -9 -8 -37 -11 -62 -3 -25 -8 -53 -11 -62 -3 -9 -7 -27 -9 -40 -3 -13
-7 -34 -10 -48 -3 -14 -7 -43 -10 -65 -2 -22 -7 -58 -9 -80 -11 -90 -18 -152
-21 -190 -2 -22 -6 -56 -9 -75 -12 -94 -19 -183 -20 -260 -1 -47 -5 -90 -8
-96 -4 -6 -4 -14 0 -18 3 -4 7 -58 8 -121 1 -63 5 -140 9 -172 3 -32 8 -85 11
-118 2 -33 6 -76 9 -95 2 -19 6 -55 9 -80 7 -69 17 -152 22 -180 3 -14 10 -56
16 -95 6 -38 13 -74 17 -80 3 -5 6 -29 6 -52 0 -22 3 -39 7 -36 5 2 8 -4 9
-14 1 -30 8 -60 35 -156 14 -51 27 -101 29 -112 1 -11 5 -27 8 -35 3 -8 15
-49 27 -90 47 -163 75 -206 158 -249 52 -26 107 -27 201 -1 41 12 80 19 88 16
8 -3 11 -1 8 4 -3 6 -1 10 5 10 29 0 393 159 410 179 3 3 32 24 64 45 33 21
64 43 70 47 139 114 237 214 313 319 35 47 68 92 75 101 7 9 14 22 16 30 2 8
10 21 18 30 8 8 14 19 14 22 0 4 13 34 29 67 16 33 27 60 24 60 -3 0 -1 6 4
13 10 12 40 95 48 133 2 10 10 48 19 84 8 36 18 81 21 100 3 19 7 46 10 60 11
62 17 149 21 330 2 107 6 209 9 225 2 17 7 55 10 85 3 30 8 66 11 80 4 14 8
41 9 60 5 72 17 146 26 163 5 9 8 17 5 17 -3 0 0 15 5 33 5 17 11 44 14 58 3
14 16 62 30 105 14 43 30 95 36 114 6 19 16 49 23 65 7 17 28 67 46 113 18 46
38 89 44 95 6 7 12 19 14 27 7 31 56 119 64 114 4 -3 5 3 1 12 -5 13 -3 15 7
9 8 -5 11 -4 6 3 -9 15 15 63 28 55 6 -3 8 -3 4 2 -4 4 0 21 8 37 20 39 125
200 141 216 7 7 13 17 13 20 0 4 10 18 23 32 12 14 34 41 47 60 25 35 269 283
345 350 22 19 56 46 75 60 34 24 49 36 92 73 20 16 33 21 51 18 5 -1 6 3 2 8
-8 13 132 104 147 95 6 -4 8 -3 4 4 -6 11 284 159 394 201 51 20 280 88 325
97 11 2 31 6 45 9 14 3 35 7 48 10 13 2 31 6 40 9 9 3 35 8 57 11 23 3 50 7
61 9 103 20 486 28 644 13 149 -14 328 -53 555 -121 6 -2 21 -8 35 -13 14 -6
71 -29 128 -52 121 -48 224 -99 234 -115 4 -6 8 -8 8 -4 0 20 295 -167 367
-233 18 -16 35 -29 39 -29 13 0 73 -68 66 -75 -4 -5 -2 -5 5 -1 20 11 233
-196 353 -344 25 -30 48 -57 51 -60 3 -3 12 -16 19 -29 7 -14 17 -30 21 -35 5
-6 19 -27 32 -46 64 -98 87 -142 81 -152 -4 -6 -3 -8 3 -5 13 8 37 -37 30 -57
-4 -9 -1 -13 7 -10 7 3 24 -22 44 -66 18 -39 32 -75 32 -80 0 -5 3 -10 8 -12
6 -3 56 -102 58 -117 0 -3 3 -13 6 -21 4 -8 9 -24 14 -35 4 -11 8 -22 9 -25 1
-3 7 -18 14 -35 7 -16 13 -38 14 -47 1 -10 4 -18 7 -18 4 0 7 -6 8 -12 1 -20
9 -48 32 -113 12 -33 22 -74 23 -92 1 -18 5 -33 8 -33 6 0 21 -70 24 -105 0
-5 4 -16 9 -23 4 -7 9 -36 11 -65 2 -29 4 -52 5 -52 2 0 6 -25 14 -100 4 -33
10 -80 12 -105 3 -25 7 -121 9 -215 5 -204 14 -479 21 -630 10 -202 5 -645
-11 -910 -2 -33 -6 -107 -9 -165 -3 -58 -8 -123 -10 -145 -3 -22 -8 -67 -11
-100 -4 -33 -8 -71 -11 -85 -2 -14 -6 -55 -9 -90 -4 -57 -9 -95 -31 -240 -2
-19 -6 -46 -8 -60 -2 -14 -9 -54 -16 -90 -16 -85 -18 -95 -20 -95 -2 0 -9 -30
-15 -60 -6 -33 -36 -149 -42 -165 -3 -8 -7 -19 -8 -25 -3 -23 -56 -200 -72
-245 -8 -20 -10 -28 -24 -80 -7 -25 -15 -47 -18 -50 -3 -3 -14 -30 -25 -60
-35 -103 -87 -233 -99 -244 -29 -29 -280 -175 -290 -169 -5 3 -7 2 -4 -4 8
-12 -81 -56 -95 -47 -6 4 -8 2 -4 -4 3 -6 -19 -23 -54 -40 -33 -17 -59 -27
-57 -24 2 4 21 41 41 82 20 41 49 100 65 130 51 97 81 164 81 177 0 7 4 13 8
13 5 0 17 27 27 60 10 33 23 60 28 60 6 0 8 3 4 6 -3 4 0 19 8 35 8 15 17 36
18 46 2 10 7 25 10 33 9 22 68 202 72 220 2 8 12 40 23 70 10 30 36 127 57
215 21 88 43 163 49 167 8 6 8 8 0 8 -7 0 -6 19 3 63 7 34 16 82 19 107 3 25
8 59 11 75 3 17 7 46 9 65 2 19 5 49 8 65 4 27 13 93 21 165 2 14 6 52 11 85
4 33 6 70 6 83 -1 12 3 22 9 22 8 0 8 4 1 13 -6 7 -8 27 -4 47 4 19 7 63 7 97
0 35 2 63 5 63 7 0 14 352 13 720 0 299 -3 402 -17 700 -3 58 -8 161 -11 230
-7 146 -12 218 -21 280 -4 25 -8 55 -8 68 -1 12 -4 22 -7 22 -3 0 -6 6 -6 13
0 22 -44 201 -54 219 -5 10 -9 25 -9 33 0 8 -3 15 -7 15 -5 0 -9 15 -10 33 -1
17 -6 41 -11 52 -5 11 -19 47 -31 80 -38 102 -74 165 -111 195 -51 40 -107 58
-150 47 -19 -4 -41 -8 -49 -9 -25 -2 -87 -75 -99 -116 -20 -65 -14 -97 38
-231 41 -107 77 -218 95 -291 2 -8 8 -35 14 -60 18 -72 20 -82 26 -140 3 -30
8 -68 10 -85 7 -56 15 -193 20 -372 3 -98 8 -223 11 -278 10 -160 12 -718 3
-742 -5 -15 -5 -23 2 -23 6 0 8 -3 5 -8 -2 -4 -7 -93 -11 -197 -8 -203 -12
-290 -15 -290 0 0 -3 -25 -5 -55 -12 -187 -21 -265 -32 -284 -4 -6 -7 -27 -7
-47 -1 -20 -7 -43 -14 -52 -9 -10 -10 -17 -2 -22 6 -3 7 -11 4 -17 -4 -5 -9
-27 -11 -47 -3 -20 -10 -39 -17 -43 -7 -5 -7 -8 0 -8 7 0 7 -19 -2 -62 -8 -35
-16 -76 -19 -93 -17 -99 -39 -195 -65 -285 -12 -41 -23 -79 -24 -85 -2 -5 -6
-17 -9 -25 -3 -8 -22 -66 -42 -127 -21 -62 -40 -113 -44 -113 -4 0 -7 -8 -8
-17 -1 -21 -43 -136 -52 -143 -3 -3 -7 -12 -9 -20 -3 -14 -22 -56 -83 -187
-16 -34 -34 -65 -39 -68 -6 -4 -8 -10 -5 -15 3 -5 -5 -26 -18 -47 -13 -21 -43
-74 -67 -118 -24 -44 -46 -82 -50 -85 -3 -3 -17 -25 -31 -50 -13 -25 -27 -46
-31 -48 -5 -2 -8 -10 -8 -17 0 -7 -3 -15 -8 -17 -4 -1 -34 -42 -66 -90 -33
-48 -64 -84 -69 -81 -6 3 -7 1 -3 -6 4 -6 -1 -23 -12 -39 -63 -91 -71 -221
-16 -273 13 -12 21 -26 18 -30 -3 -5 4 -9 15 -9 12 0 21 -4 21 -8 0 -5 6 -9
13 -10 6 -1 32 -4 57 -8 33 -4 61 0 105 16 75 27 95 32 122 34 11 0 19 4 16 9
-2 4 1 8 6 8 16 2 23 4 54 17 16 7 32 12 37 12 5 0 21 7 37 15 33 17 86 40
208 91 50 21 127 57 173 81 46 24 88 40 94 37 6 -4 8 -3 5 3 -6 10 11 21 128
83 62 33 156 90 165 100 3 3 37 25 75 50 39 24 74 50 78 57 4 7 13 13 19 13 5
0 28 14 49 31 21 17 39 27 39 22 0 -4 4 -3 8 3 4 6 41 40 82 74 93 77 105 86
160 131 52 42 211 191 320 300 74 74 96 99 240 269 39 47 82 97 95 112 14 16
83 115 155 220 71 106 134 198 140 205 5 7 10 15 10 19 0 4 17 34 38 68 41 64
137 250 195 376 19 41 49 105 66 142 17 37 31 70 31 74 0 3 6 20 14 37 14 32
28 68 31 77 8 33 28 80 34 80 4 0 7 8 7 18 1 9 24 98 53 196 28 99 54 192 56
208 3 16 12 54 20 86 9 31 18 71 20 87 3 17 7 41 10 55 9 48 23 136 30 185 2
17 7 41 9 54 3 13 8 55 11 93 4 38 8 79 11 91 3 12 7 47 9 77 3 30 7 82 11
115 3 33 8 149 9 258 2 108 7 202 10 207 3 6 2 10 -2 10 -5 0 -9 19 -10 43 0
38 -6 99 -18 197 -2 19 -7 67 -10 105 -7 89 -14 144 -31 250 -2 17 -15 83 -28
150 -2 11 -14 70 -26 130 -24 122 -25 126 -39 173 -5 18 -11 36 -12 40 -1 4
-3 12 -4 17 -2 6 -13 44 -26 85 -12 41 -24 80 -25 85 -11 53 -108 312 -164
440 -66 150 -196 415 -224 458 -10 15 -16 27 -12 27 3 0 -3 9 -14 20 -11 11
-20 25 -20 30 0 6 -17 34 -38 63 -21 29 -51 72 -66 97 -42 71 -50 82 -66 99
-8 9 -24 34 -35 56 -11 22 -25 45 -31 50 -19 18 -84 103 -84 110 0 3 -6 12
-12 19 -21 22 -61 68 -103 121 -22 27 -59 70 -82 95 -24 25 -43 48 -43 53 0 4
-7 7 -15 7 -8 0 -15 4 -15 8 0 18 -184 209 -250 260 -19 15 -55 46 -80 70 -25
24 -58 53 -74 65 -15 12 -39 32 -52 45 -12 12 -26 22 -29 22 -13 0 -34 28 -27
35 4 5 2 5 -4 2 -5 -3 -26 7 -45 24 -19 16 -38 29 -42 29 -5 0 -5 5 -2 10 4 6
3 9 -2 8 -9 -2 -55 21 -63 32 -4 5 -212 142 -285 187 -138 85 -516 283 -541
283 -8 0 -22 4 -32 10 -32 18 -133 60 -143 60 -6 0 -20 5 -32 12 -12 7 -26 13
-32 14 -5 1 -35 11 -65 22 -30 11 -76 26 -102 33 -27 7 -48 17 -48 21 0 4 -6
5 -13 2 -7 -2 -46 6 -87 20 -73 23 -149 45 -180 51 -8 2 -33 8 -55 13 -22 6
-53 13 -70 16 -16 3 -41 8 -55 11 -14 3 -41 8 -60 11 -48 7 -75 12 -75 14 0 1
-18 3 -40 5 -21 3 -54 7 -73 10 -132 21 -383 37 -600 39 -85 0 -154 0 -155 -1z
m31 -395 c9 5 58 7 107 5 50 -1 97 -2 105 -3 8 0 40 1 70 2 91 3 333 -18 430
-37 14 -3 43 -7 65 -10 22 -4 47 -7 55 -9 8 -1 38 -6 65 -11 28 -4 55 -10 60
-13 6 -4 19 -7 30 -8 11 0 30 -4 42 -8 12 -4 30 -9 41 -11 10 -2 49 -13 87
-24 37 -12 77 -23 89 -25 11 -3 57 -17 101 -31 44 -15 85 -28 90 -29 13 -3
123 -44 150 -55 11 -5 58 -24 105 -43 107 -41 326 -153 323 -164 -1 -5 8 -10
20 -10 32 -3 320 -170 339 -199 4 -5 8 -6 8 -2 0 4 6 3 13 -3 6 -5 66 -49 132
-96 170 -122 266 -206 450 -389 184 -184 255 -263 255 -284 0 -8 3 -12 6 -9 3
4 22 -12 42 -35 20 -23 39 -44 42 -47 3 -3 19 -25 35 -50 30 -45 41 -60 60
-83 23 -27 135 -186 135 -191 0 -3 15 -28 34 -55 19 -26 48 -74 66 -107 17
-32 39 -72 49 -89 53 -91 92 -175 85 -186 -4 -7 -3 -10 3 -6 13 8 36 -41 27
-55 -5 -7 -2 -8 6 -3 10 6 12 3 8 -13 -4 -12 -2 -20 2 -17 5 3 17 -14 28 -37
54 -114 177 -439 188 -496 3 -13 11 -42 19 -65 7 -23 21 -76 30 -117 9 -41 20
-86 25 -100 5 -14 12 -43 15 -65 3 -22 7 -51 10 -65 12 -58 16 -82 40 -215 13
-78 26 -166 29 -195 14 -143 17 -186 22 -272 5 -109 6 -440 0 -483 -6 -53 -15
-138 -22 -210 -3 -38 -8 -77 -9 -87 -4 -20 -18 -108 -20 -128 -1 -8 -5 -31 -9
-50 -7 -41 -14 -81 -22 -130 -3 -19 -10 -53 -15 -75 -6 -22 -12 -47 -13 -55
-7 -36 -76 -270 -85 -285 -3 -5 -6 -14 -6 -20 -2 -16 -17 -69 -24 -80 -3 -5
-6 -12 -6 -15 -2 -14 -19 -59 -35 -95 -10 -22 -23 -59 -30 -82 -7 -24 -17 -40
-23 -36 -6 3 -7 1 -4 -4 4 -6 -8 -42 -25 -79 -18 -38 -32 -71 -33 -74 -2 -14
-171 -342 -213 -413 -71 -119 -131 -210 -145 -219 -7 -4 -7 -8 -2 -8 7 0 7 -3
0 -8 -10 -7 -129 -164 -175 -232 -14 -19 -29 -40 -35 -46 -5 -7 -21 -26 -35
-44 -69 -89 -236 -261 -245 -252 -5 4 -5 2 -2 -4 3 -6 -8 -24 -25 -40 -17 -16
-28 -22 -25 -14 3 8 11 34 18 57 6 24 14 41 18 39 3 -2 6 6 7 17 0 12 3 33 7
47 5 22 18 79 33 150 3 14 9 41 14 60 5 19 12 49 14 65 3 17 7 39 10 50 9 52
16 93 21 130 3 22 7 51 11 65 10 47 17 96 28 220 4 36 8 81 11 100 3 19 7 67
10 105 3 39 7 79 9 91 2 11 7 54 11 95 4 41 8 88 10 104 16 135 23 822 13
1193 -4 137 -2 192 6 192 8 0 8 2 0 8 -12 8 -15 45 -17 229 -1 73 -4 133 -7
133 -3 0 -6 35 -7 78 -1 73 -8 156 -18 212 -9 55 -26 165 -30 199 -2 20 -6 46
-9 57 -2 12 -14 66 -26 120 -25 116 -63 253 -79 283 -7 12 -9 21 -7 21 3 0 -4
21 -14 46 -11 25 -18 50 -14 55 3 5 1 9 -4 9 -5 0 -24 36 -41 81 -18 45 -43
105 -57 134 -13 30 -24 59 -24 64 0 6 -4 11 -10 11 -5 0 -10 7 -10 15 0 8 -16
45 -35 81 -19 37 -32 71 -28 77 3 6 2 7 -4 4 -13 -8 -46 50 -37 65 4 6 3 8 -3
5 -9 -5 -51 51 -108 141 -10 17 -12 19 -57 71 -16 17 -28 33 -28 37 0 3 -6 11
-12 19 -7 7 -24 27 -38 45 -30 37 -41 51 -100 121 -60 72 -240 249 -252 249
-6 0 -8 7 -5 15 4 8 1 17 -5 21 -7 4 -8 3 -4 -4 4 -7 3 -12 -3 -12 -5 0 -13 5
-16 10 -3 6 -37 35 -74 64 -38 30 -75 61 -82 68 -8 7 -24 18 -34 25 -11 6 -19
16 -17 23 1 6 -2 9 -7 6 -5 -3 -24 4 -42 17 -66 44 -214 135 -249 152 -19 10
-38 23 -42 29 -4 6 -8 8 -8 4 0 -4 -25 6 -55 22 -30 16 -55 27 -55 24 0 -3
-13 4 -29 15 -16 12 -34 21 -39 21 -6 0 -27 9 -49 19 -74 37 -343 127 -453
151 -30 7 -62 15 -70 18 -8 2 -22 6 -30 7 -8 1 -28 5 -45 8 -32 7 -65 12 -135
22 -25 3 -56 8 -70 10 -76 11 -227 19 -395 19 -209 -1 -286 -6 -450 -30 -27
-4 -61 -9 -75 -10 -14 -1 -25 -3 -25 -4 0 -2 -15 -5 -55 -13 -14 -3 -25 -6
-25 -7 0 -1 -13 -3 -30 -5 -32 -4 -70 -12 -70 -15 0 -2 -9 -4 -55 -13 -93 -20
-367 -119 -445 -161 -16 -9 -64 -32 -105 -51 -103 -48 -179 -91 -301 -171 -57
-37 -105 -67 -106 -66 -1 1 -17 -12 -34 -28 -18 -16 -37 -26 -42 -23 -6 3 -7
2 -4 -4 4 -5 -5 -16 -18 -23 -14 -7 -25 -17 -25 -22 0 -4 -5 -8 -11 -8 -6 0
-16 -6 -23 -12 -7 -7 -35 -31 -62 -53 -26 -22 -55 -48 -63 -57 -8 -9 -18 -15
-23 -12 -5 3 -8 2 -7 -3 1 -4 -45 -56 -103 -114 -57 -58 -115 -121 -128 -140
-13 -19 -33 -43 -44 -54 -79 -78 -276 -367 -317 -465 -6 -13 -14 -27 -18 -30
-16 -11 -112 -222 -166 -365 -31 -82 -60 -152 -63 -155 -4 -3 -7 -9 -8 -15 -1
-28 -18 -91 -27 -102 -5 -7 -7 -13 -4 -13 3 0 -3 -29 -13 -65 -10 -36 -16 -65
-14 -65 3 0 2 -6 -3 -12 -4 -7 -8 -17 -9 -23 -1 -5 -9 -53 -19 -105 -9 -52
-18 -97 -20 -100 -1 -3 -6 -34 -10 -70 -6 -65 -9 -88 -20 -147 -6 -35 -14
-192 -20 -408 -3 -77 -7 -156 -10 -175 -13 -91 -29 -163 -50 -230 -6 -19 -18
-48 -26 -62 -5 -10 -9 -23 -9 -29 0 -19 -62 -139 -71 -139 -5 0 -9 -6 -9 -13
0 -8 -9 -24 -20 -37 -11 -13 -20 -26 -20 -29 0 -4 -20 -28 -45 -55 -25 -27
-45 -53 -45 -58 0 -4 -4 -8 -8 -8 -5 0 -33 -23 -63 -50 -30 -28 -72 -63 -94
-78 -22 -15 -42 -29 -45 -32 -18 -18 -283 -150 -301 -150 -5 0 -9 -4 -9 -10 0
-5 -8 -10 -19 -10 -14 0 -23 17 -42 78 -13 42 -24 79 -24 82 -1 3 -16 66 -34
140 -19 74 -35 149 -37 165 -1 17 -3 30 -4 30 -1 0 -3 14 -5 30 -2 17 -7 50
-11 75 -7 48 -11 89 -19 160 -2 25 -7 68 -10 95 -17 150 -19 195 -19 360 0
172 9 370 19 397 2 7 7 51 9 98 3 47 8 96 11 110 2 13 6 39 7 57 1 18 5 33 8
33 3 0 6 21 6 48 1 26 5 65 8 87 6 37 18 103 21 115 0 3 4 21 8 40 12 59 15
72 41 170 14 52 32 118 41 145 9 28 18 61 21 75 2 14 8 34 13 45 4 11 14 38
20 60 7 22 22 60 32 83 11 24 29 69 41 100 11 32 24 61 29 66 5 6 9 17 9 25 0
8 23 61 50 118 28 56 50 107 50 112 0 5 3 11 8 13 9 4 56 100 54 111 -1 4 3 7
8 7 6 0 10 6 10 14 0 18 39 86 49 86 4 0 8 6 8 13 0 13 140 230 167 260 9 9
16 19 16 22 0 15 54 84 61 79 5 -3 9 -2 8 3 -3 18 2 29 27 58 14 17 30 29 36
27 5 -1 7 2 3 8 -4 6 8 27 25 48 28 32 60 69 137 159 11 12 28 33 39 47 10 15
24 24 31 22 7 -3 10 0 7 7 -7 18 141 161 157 152 8 -6 10 -4 4 4 -9 16 104
126 252 246 14 11 34 28 45 37 11 10 25 15 30 12 4 -3 7 -1 6 4 -5 15 92 90
255 197 37 25 69 45 72 45 2 0 24 14 48 30 25 17 50 30 56 30 6 0 11 4 11 8 0
10 151 88 162 84 5 -1 8 2 8 7 0 5 15 14 33 22 17 7 44 21 60 31 15 11 27 16
27 11 0 -4 4 -3 8 3 8 11 57 35 142 70 30 12 103 42 163 68 59 25 107 43 107
40 0 -2 8 0 18 5 11 6 30 12 43 15 13 3 40 10 59 16 28 9 207 60 305 86 11 3
34 7 51 8 17 2 35 6 40 8 13 8 66 19 159 33 22 3 67 10 100 15 114 18 151 21
274 26 68 2 127 7 130 10 3 3 7 1 9 -5 2 -7 10 -8 20 -3z"/>
<path d="M10004 14142 c3 -5 -8 -9 -27 -9 -17 0 -51 -3 -75 -6 -32 -5 -41 -4
-36 6 6 9 4 9 -8 -1 -9 -7 -38 -15 -64 -17 -47 -4 -79 -9 -134 -20 -13 -3 -41
-7 -61 -10 -20 -3 -50 -10 -68 -15 -17 -5 -34 -9 -36 -9 -3 0 -30 -5 -60 -11
-30 -6 -60 -8 -66 -4 -7 4 -9 3 -6 -3 6 -9 -79 -36 -123 -39 -8 -1 -28 -7 -45
-14 -16 -6 -40 -13 -52 -13 -13 -1 -23 -5 -23 -9 0 -3 -15 -10 -32 -14 -77
-16 -335 -122 -498 -202 -96 -48 -177 -90 -178 -95 -2 -4 -8 -5 -13 -1 -5 3
-9 0 -9 -5 0 -6 -6 -11 -12 -11 -7 0 -33 -14 -58 -30 -25 -17 -52 -35 -60 -40
-79 -52 -226 -155 -228 -162 -2 -4 -10 -8 -18 -8 -8 0 -14 -4 -14 -10 0 -5
-14 -17 -31 -25 -16 -9 -38 -24 -48 -33 -41 -40 -85 -71 -93 -66 -5 3 -7 1 -6
-4 2 -5 -22 -33 -53 -63 -63 -60 -101 -126 -101 -175 0 -50 21 -106 53 -140
16 -17 26 -34 22 -39 -5 -4 -3 -5 3 -2 6 3 29 0 51 -8 22 -8 55 -11 74 -8 19
3 42 6 52 6 9 1 17 5 17 9 0 4 11 13 24 20 13 7 59 45 102 85 102 92 261 214
279 213 3 0 13 8 23 18 57 57 418 249 612 327 52 21 115 46 139 57 24 11 50
17 57 14 8 -3 14 -2 14 2 0 7 67 30 101 35 8 2 19 5 24 9 10 6 118 36 160 44
11 2 44 9 72 15 29 5 65 12 80 14 16 2 28 4 28 5 0 1 12 3 26 5 15 2 44 6 65
10 37 6 68 9 204 20 30 2 55 5 55 6 0 8 339 12 435 5 61 -4 154 -14 192 -19
10 -2 20 -6 24 -9 3 -4 12 -4 20 -1 8 3 22 2 32 -2 9 -5 26 -7 37 -6 48 4 436
-84 443 -100 2 -5 9 -6 16 -3 7 3 26 -1 42 -7 16 -7 34 -13 39 -15 117 -30
540 -218 529 -236 -3 -5 -2 -8 3 -7 22 4 43 -2 57 -17 9 -8 16 -13 16 -9 0 3
11 -2 25 -11 14 -9 22 -21 18 -27 -3 -6 -1 -7 6 -3 27 17 321 -187 496 -343
85 -76 122 -98 182 -109 29 -5 50 -6 48 -1 -3 4 9 10 26 14 75 17 144 125 129
203 -8 46 -30 85 -70 122 -120 112 -197 177 -300 253 -41 31 -79 60 -85 64 -5
5 -35 24 -65 43 -30 19 -56 38 -58 42 -2 5 -7 8 -12 8 -4 0 -51 27 -103 60
-53 33 -103 60 -111 60 -8 0 -17 4 -20 9 -5 8 -248 131 -259 131 -3 0 -22 8
-43 17 -22 9 -41 17 -44 18 -3 0 -43 15 -90 34 -122 48 -177 67 -242 87 -31
10 -55 20 -53 24 2 3 -9 4 -26 2 -16 -2 -29 0 -29 4 0 5 -17 10 -38 12 -20 1
-39 7 -40 12 -2 6 -8 8 -13 5 -5 -3 -26 -1 -46 4 -21 5 -58 13 -83 16 -24 4
-47 8 -50 10 -3 2 -23 6 -45 9 -82 12 -121 18 -140 23 -24 6 -70 11 -108 12
-18 1 -26 5 -21 12 5 8 1 8 -13 0 -11 -6 -22 -9 -24 -7 -14 14 -471 24 -534
12 -11 -2 -28 1 -39 6 -12 7 -16 7 -12 0z"/>
<path d="M12896 13198 c3 -5 10 -6 15 -3 13 9 11 12 -6 12 -8 0 -12 -4 -9 -9z"/>
<path d="M7244 12585 c-18 -8 -47 -29 -65 -48 -88 -87 -331 -526 -422 -763
-30 -77 -58 -148 -62 -159 -9 -24 -5 -10 -50 -160 -20 -66 -39 -127 -42 -135
-4 -8 -7 -19 -7 -25 -1 -5 -5 -23 -9 -40 -12 -47 -19 -79 -21 -95 -1 -8 -6
-26 -11 -40 -5 -14 -9 -32 -10 -40 0 -8 -6 -25 -13 -36 -6 -12 -9 -24 -6 -26
2 -3 -2 -45 -10 -94 -9 -49 -18 -107 -20 -129 -9 -70 -17 -129 -21 -170 -13
-105 -17 -412 -6 -451 16 -60 103 -146 130 -130 5 4 12 2 16 -4 7 -12 99 -4
129 12 38 20 75 66 87 110 13 47 15 77 24 248 3 63 8 153 11 200 4 47 7 95 8
108 0 12 2 22 6 22 3 0 6 12 6 28 2 36 13 107 25 157 5 22 12 54 14 72 6 41
44 203 52 223 3 8 8 26 10 40 2 14 13 44 23 68 10 23 17 42 14 42 -2 0 2 13
11 30 8 16 15 32 14 35 -1 6 26 81 46 130 7 17 23 57 35 90 13 33 34 79 47
102 13 24 24 44 24 45 0 17 13 48 20 48 5 0 8 3 7 8 -4 12 24 72 33 72 5 0 8
3 7 8 -3 10 50 116 70 138 9 11 27 37 39 59 13 22 28 39 34 37 6 -1 8 2 5 7
-4 5 7 30 24 55 17 24 37 61 45 81 41 97 6 220 -75 263 -43 22 -124 26 -166 7z"/>
<path d="M8135 12591 c-3 -5 -2 -12 3 -15 5 -3 9 1 9 9 0 17 -3 19 -12 6z"/>
<path d="M13148 12590 c-92 -11 -161 -96 -160 -195 0 -57 10 -81 77 -185 25
-38 45 -71 45 -75 0 -3 11 -21 24 -38 26 -34 111 -198 163 -312 47 -103 105
-247 104 -253 -1 -1 5 -18 13 -37 9 -20 15 -38 15 -40 1 -3 8 -22 17 -43 9
-20 17 -51 18 -69 0 -17 4 -29 7 -27 4 2 12 -15 18 -39 30 -105 62 -235 67
-267 4 -30 12 -72 20 -105 1 -5 5 -27 9 -49 4 -21 9 -48 11 -60 2 -11 6 -39 9
-61 18 -146 23 -216 29 -407 6 -171 30 -225 119 -272 91 -49 203 -13 251 79
18 35 21 57 20 165 0 69 -3 163 -7 210 -4 47 -10 117 -13 155 -3 39 -8 81 -10
95 -2 14 -6 43 -9 65 -3 22 -8 54 -12 70 -3 17 -7 39 -9 50 -2 11 -8 38 -13
60 -5 22 -12 54 -14 70 -6 37 -45 205 -53 225 -3 8 -5 16 -5 17 0 2 -9 32 -19
68 -10 36 -20 69 -21 73 -1 4 -3 12 -5 17 -35 98 -52 160 -47 168 3 6 2 7 -4
4 -5 -3 -20 24 -33 61 -13 37 -26 72 -30 77 -4 6 -13 27 -19 47 -7 21 -29 70
-49 110 -19 40 -36 75 -37 78 -1 3 -28 57 -60 120 -33 63 -63 122 -67 131 -3
10 -12 20 -18 24 -6 4 -15 17 -21 28 -10 23 -31 59 -39 67 -3 3 -25 36 -49 73
-64 100 -128 137 -213 127z"/>
<path d="M13587 10459 c7 -7 15 -10 18 -7 3 3 -2 9 -12 12 -14 6 -15 5 -6 -5z"/>
<path d="M13996 10002 c-3 -5 1 -9 9 -9 8 0 12 4 9 9 -3 4 -7 8 -9 8 -2 0 -6
-4 -9 -8z"/>
<path d="M12790 14226 c0 -2 7 -7 16 -10 8 -3 12 -2 9 4 -6 10 -25 14 -25 6z"/>
<path d="M13715 14040 c3 -5 8 -10 11 -10 2 0 4 5 4 10 0 6 -5 10 -11 10 -5 0
-7 -4 -4 -10z"/>
<path d="M5265 13600 c-3 -6 1 -7 9 -4 18 7 21 14 7 14 -6 0 -13 -4 -16 -10z"/>
<path d="M10039 12643 c-68 -7 -144 -17 -169 -23 -25 -5 -58 -12 -75 -15 -16
-3 -43 -7 -60 -10 -42 -8 -202 -53 -250 -72 -22 -8 -40 -14 -40 -13 0 4 -86
-32 -188 -80 -26 -12 -57 -33 -70 -47 -12 -14 -29 -33 -37 -42 -20 -22 -25
-93 -9 -149 13 -48 64 -107 107 -124 37 -14 122 -12 147 4 46 29 360 137 411
142 17 2 36 6 43 10 6 4 37 9 69 12 31 2 68 6 82 10 40 10 379 13 450 3 36 -5
90 -11 119 -14 30 -4 58 -8 62 -11 4 -2 24 -6 45 -10 91 -14 328 -103 474
-177 82 -42 254 -155 302 -198 65 -61 88 -79 88 -72 0 4 7 -3 16 -15 8 -12 37
-33 62 -46 38 -19 59 -23 102 -20 80 6 89 7 84 16 -3 4 -1 8 3 8 9 0 75 57 72
62 -1 2 3 20 10 40 17 50 10 117 -17 159 -20 32 -90 102 -124 124 -8 6 -61 46
-117 90 -57 44 -109 81 -117 83 -8 2 -14 7 -14 12 0 5 -9 12 -20 15 -11 3 -26
12 -33 18 -17 15 -40 29 -140 79 -45 23 -84 44 -87 47 -3 4 -11 7 -18 9 -7 1
-34 12 -60 23 -101 46 -115 51 -128 53 -7 1 -17 5 -20 9 -4 4 -13 7 -20 7 -7
0 -25 5 -41 11 -15 7 -37 13 -49 14 -11 2 -40 9 -65 16 -24 7 -51 13 -59 15
-8 1 -26 5 -40 8 -14 2 -43 7 -65 11 -22 3 -53 8 -70 10 -168 29 -367 35 -546
18z"/>
<path d="M8645 11940 c-3 -4 -13 -7 -23 -5 -16 2 -59 -17 -90 -40 -28 -21
-146 -177 -197 -260 -16 -26 -38 -55 -47 -64 -10 -8 -18 -19 -18 -23 0 -4 -15
-31 -33 -60 -19 -29 -56 -96 -83 -148 -27 -52 -51 -97 -54 -100 -3 -3 -6 -12
-7 -20 -1 -8 -11 -42 -23 -75 -28 -77 -87 -290 -105 -375 -2 -8 -8 -35 -13
-60 -6 -25 -13 -63 -16 -85 -4 -23 -9 -52 -12 -65 -9 -42 -13 -107 -18 -310
-3 -107 -8 -222 -10 -255 -10 -106 -29 -245 -35 -245 -3 0 -6 -15 -7 -33 -2
-57 -19 -116 -38 -129 -7 -5 -6 -8 3 -8 9 0 10 -4 4 -12 -6 -7 -18 -42 -28
-78 -28 -105 -121 -314 -135 -305 -4 2 -7 -2 -7 -9 0 -21 -85 -153 -156 -241
-105 -130 -286 -305 -316 -305 -6 0 -11 -4 -11 -9 0 -5 -26 -26 -57 -47 -32
-22 -61 -43 -64 -47 -3 -5 -8 -7 -10 -6 -2 2 -25 -11 -51 -29 -26 -18 -51 -32
-57 -32 -6 0 -11 -4 -11 -9 0 -5 -12 -12 -26 -15 -14 -4 -43 -18 -65 -31 -21
-14 -42 -25 -47 -25 -5 0 -30 -11 -58 -24 -96 -46 -140 -64 -239 -96 -55 -17
-105 -38 -111 -46 -6 -7 -13 -11 -16 -8 -8 8 -49 -81 -52 -113 -1 -15 4 -48
11 -72 17 -56 122 -256 183 -348 27 -39 46 -74 43 -77 -4 -3 -2 -6 4 -6 6 0
25 -22 43 -50 17 -27 44 -65 58 -83 15 -19 38 -49 52 -68 39 -52 119 -129 135
-129 8 0 15 -4 15 -10 0 -11 115 -5 150 8 14 5 27 10 30 10 58 7 414 187 575
293 33 21 69 43 80 48 11 5 44 27 74 50 30 22 58 38 64 34 6 -3 7 -2 4 3 -3 5
11 21 31 34 20 14 50 39 66 55 17 17 51 47 76 66 74 59 200 189 322 332 20 22
26 25 38 15 12 -11 12 -10 2 3 -10 13 -8 21 13 43 13 14 25 29 25 31 0 3 4 11
10 18 37 46 86 119 149 222 39 66 76 127 81 135 12 19 91 180 118 242 25 54
72 183 79 216 3 12 10 22 15 22 5 0 7 4 4 9 -4 5 -1 22 5 38 6 15 13 37 15 48
2 11 10 47 19 80 8 33 17 67 19 77 4 16 17 95 22 133 1 11 3 20 4 20 1 0 3 8
5 18 2 10 7 26 10 35 4 9 8 37 9 62 1 25 5 51 9 57 10 17 17 123 22 333 5 233
14 353 29 411 4 14 9 34 11 45 2 10 4 19 5 19 1 0 3 9 5 20 7 48 27 120 37
132 6 7 8 13 4 13 -11 0 35 110 80 189 24 43 64 104 89 137 65 84 215 235 226
229 5 -4 9 0 9 9 0 8 16 24 35 36 20 12 41 27 48 33 21 20 147 89 147 81 0 -2
17 4 39 15 21 11 41 17 45 14 3 -4 6 -1 6 5 0 7 9 12 19 12 11 0 22 4 25 8 3
5 15 8 28 7 13 -1 26 2 29 7 3 5 21 10 41 12 19 2 39 6 45 9 22 14 117 22 248
21 146 0 194 -5 260 -22 22 -6 51 -13 65 -16 64 -12 254 -84 285 -108 6 -5 35
-24 65 -44 30 -20 60 -42 65 -48 6 -7 22 -21 38 -30 15 -10 27 -25 27 -32 0
-8 4 -13 9 -12 18 6 211 -215 211 -240 0 -6 3 -12 8 -14 10 -4 103 -188 95
-188 -3 0 0 -6 6 -14 6 -7 12 -25 13 -39 1 -15 8 -29 14 -31 7 -3 11 -13 10
-23 -2 -10 1 -21 5 -24 5 -3 10 -18 11 -35 1 -16 4 -33 7 -39 3 -5 6 -17 8
-25 1 -8 7 -42 12 -75 6 -33 13 -98 16 -145 4 -47 8 -116 11 -155 2 -38 6
-131 9 -205 2 -74 7 -173 10 -220 3 -47 8 -114 10 -150 12 -195 17 -219 54
-247 9 -7 12 -13 6 -13 -22 -1 99 -50 122 -50 49 0 106 24 140 60 60 61 64 82
57 274 -10 302 -13 361 -14 361 -1 0 -3 17 -5 38 -2 23 1 37 9 37 8 0 8 2 -1
8 -6 4 -11 18 -10 32 1 68 -16 329 -28 410 -5 36 -29 143 -55 242 -15 59 -25
109 -22 112 3 3 1 6 -4 6 -6 0 -16 17 -23 38 -16 45 -73 175 -81 182 -15 15
-30 52 -24 62 4 6 3 8 -3 5 -5 -3 -31 28 -59 68 -27 41 -52 75 -56 75 -5 0 -8
4 -8 10 0 5 -8 19 -17 31 -45 53 -57 67 -98 109 -23 25 -51 52 -62 60 -10 8
-44 36 -75 63 -31 26 -59 47 -63 47 -3 0 -11 5 -18 11 -11 9 -32 23 -92 61
-11 7 -33 22 -50 33 -16 11 -47 28 -68 37 -24 11 -36 22 -31 29 4 8 3 9 -5 5
-11 -7 -110 22 -121 35 -4 5 -36 15 -85 25 -5 1 -35 9 -65 18 -30 8 -66 17
-80 20 -14 2 -63 12 -110 22 -89 18 -303 24 -395 12 -49 -7 -193 -41 -305 -71
-65 -18 -178 -60 -211 -78 -13 -7 -30 -12 -36 -11 -7 2 -13 -2 -13 -8 0 -5 -4
-10 -9 -10 -12 0 -114 -62 -123 -75 -4 -6 -8 -6 -8 -1 0 6 -8 1 -19 -10 -10
-10 -28 -26 -41 -34 -27 -18 -89 -70 -151 -127 -25 -24 -51 -43 -58 -43 -7 0
-9 -4 -6 -10 3 -5 -2 -10 -11 -10 -10 0 -15 -3 -12 -6 4 -3 -1 -13 -10 -23 -9
-9 -30 -33 -46 -53 -16 -21 -34 -35 -39 -31 -6 3 -7 2 -4 -4 9 -14 -30 -73
-48 -73 -8 0 -12 -6 -9 -14 3 -8 -5 -25 -18 -38 -12 -12 -23 -28 -23 -36 0 -7
-5 -16 -11 -20 -6 -4 -26 -35 -44 -69 -18 -36 -36 -60 -43 -56 -5 3 -7 1 -4
-5 8 -12 -2 -44 -12 -38 -4 3 -7 -3 -7 -12 -1 -9 -17 -64 -37 -122 -20 -58
-38 -119 -40 -137 -3 -17 -7 -35 -10 -40 -3 -4 -8 -30 -12 -58 -3 -27 -11 -55
-16 -61 -7 -8 -6 -14 1 -19 6 -4 7 -12 0 -24 -14 -27 -20 -115 -25 -351 -2
-118 -6 -226 -9 -239 -6 -27 -18 -137 -18 -163 1 -10 -4 -20 -9 -23 -5 -4 -7
-10 -4 -15 4 -7 0 -35 -21 -130 -3 -14 -12 -59 -20 -100 -21 -100 -79 -291
-110 -357 -13 -30 -24 -56 -24 -58 0 -7 -87 -184 -108 -220 -30 -51 -56 -90
-67 -97 -5 -4 -6 -8 -2 -8 11 0 -113 -180 -124 -180 -5 0 -8 -4 -6 -8 4 -17
-105 -144 -229 -267 -104 -102 -183 -172 -246 -218 -24 -18 -54 -42 -68 -54
-14 -13 -33 -26 -42 -29 -10 -3 -18 -10 -18 -15 0 -5 -6 -9 -14 -9 -8 0 -16
-4 -18 -8 -5 -15 -158 -103 -316 -183 l-153 -77 -27 28 c-27 28 -132 174 -132
184 0 3 -11 22 -25 42 -28 42 -30 51 -12 51 6 0 41 14 77 30 119 56 159 73
169 73 5 0 11 3 13 8 2 4 19 15 38 24 35 18 53 28 102 61 15 10 34 15 40 11 7
-4 10 -4 6 1 -5 5 25 29 65 55 39 25 79 53 87 61 8 8 42 36 75 64 33 27 63 54
67 60 4 5 8 7 8 3 0 -10 90 84 90 95 0 4 5 5 10 2 6 -3 10 -3 10 2 0 4 15 24
33 43 17 20 68 81 112 135 44 55 83 102 87 103 4 2 8 8 8 12 0 9 39 72 59 96
4 5 14 21 21 35 7 13 16 26 19 29 3 3 28 47 54 98 66 126 156 386 181 523 3
13 5 24 6 24 1 0 3 9 5 20 12 76 16 106 20 155 3 30 8 72 11 92 6 44 13 217
19 425 2 84 6 156 9 161 2 4 8 35 11 67 4 33 9 63 11 66 2 3 10 41 19 85 9 43
21 85 27 92 6 6 8 12 4 12 -3 0 -1 11 4 25 5 14 12 36 14 48 4 20 34 109 55
162 56 138 215 420 268 473 7 7 13 17 13 20 0 4 16 25 35 47 19 22 35 43 35
47 0 4 6 13 13 20 17 17 48 94 40 102 -3 3 0 13 8 23 9 11 10 14 2 9 -8 -4
-13 -1 -13 9 0 26 -32 88 -56 110 -46 41 -62 53 -68 48 -3 -3 -19 -1 -35 5
-17 6 -33 7 -36 2z"/>
<path d="M11980 11346 c0 -2 8 -10 18 -17 15 -13 16 -12 3 4 -13 16 -21 21
-21 13z"/>
<path d="M10020 11124 c-104 -26 -259 -98 -311 -144 -19 -16 -40 -30 -48 -30
-8 0 -12 -3 -9 -6 3 -3 -20 -31 -51 -62 -65 -66 -105 -118 -115 -149 -4 -13
-12 -23 -17 -23 -5 0 -9 -7 -9 -15 0 -8 -4 -15 -10 -15 -5 0 -10 -5 -10 -10 0
-6 -11 -33 -25 -62 -14 -28 -25 -58 -25 -65 0 -7 -4 -13 -9 -13 -6 0 -10 -8
-10 -17 0 -10 -4 -36 -10 -58 -16 -57 -22 -142 -25 -386 -3 -209 -6 -251 -21
-374 -10 -79 -13 -104 -14 -138 -1 -16 -4 -26 -8 -24 -5 3 -8 -7 -9 -21 -1
-36 -19 -147 -24 -147 -1 0 -3 -9 -5 -20 -4 -29 -11 -62 -30 -135 -10 -36 -18
-69 -20 -75 -8 -36 -19 -71 -25 -80 -6 -8 -12 -27 -25 -75 -12 -48 -47 -130
-55 -130 -3 0 -6 -8 -7 -18 -1 -17 -51 -135 -73 -174 -6 -10 -10 -24 -10 -32
0 -7 -7 -19 -15 -26 -8 -6 -14 -15 -13 -18 2 -9 -14 -45 -21 -52 -6 -5 -34
-60 -35 -70 -3 -14 -114 -190 -143 -227 -18 -23 -33 -44 -33 -48 0 -15 -102
-135 -111 -130 -5 4 -6 -1 -3 -9 3 -9 -12 -32 -39 -60 -24 -25 -42 -47 -40
-49 4 -5 -268 -280 -337 -342 -66 -59 -248 -205 -256 -205 -3 0 -13 -8 -22
-19 -10 -10 -71 -52 -137 -93 -174 -109 -191 -118 -198 -111 -4 3 -7 1 -7 -5
0 -6 -26 -24 -57 -39 -32 -15 -81 -42 -109 -59 -40 -25 -55 -30 -64 -21 -10 9
-11 9 -6 -1 5 -8 -6 -26 -29 -47 -20 -19 -34 -35 -31 -35 3 0 -1 -12 -9 -27
-21 -40 -13 -124 16 -165 38 -54 154 -161 208 -192 9 -5 25 -18 36 -28 11 -11
39 -34 63 -51 24 -18 65 -49 92 -69 27 -21 54 -38 59 -38 5 0 16 -8 23 -17 7
-10 20 -19 28 -21 8 -2 22 -11 30 -20 9 -9 22 -18 29 -20 7 -1 28 -14 46 -27
17 -14 35 -25 39 -25 4 0 30 -15 59 -33 29 -18 66 -40 82 -49 17 -8 95 -49
175 -91 141 -73 331 -157 357 -157 7 0 13 -4 13 -8 0 -4 20 -14 45 -21 25 -7
45 -16 45 -20 0 -4 10 -7 22 -8 11 -1 24 -6 27 -10 3 -4 13 -10 21 -11 8 -2
22 -5 30 -7 8 -2 71 -20 140 -40 69 -20 133 -37 143 -37 9 1 17 -4 17 -10 0
-6 3 -9 6 -5 3 3 17 2 30 -3 14 -6 35 -12 47 -15 208 -46 381 -78 492 -91 33
-3 68 -8 77 -9 39 -8 284 -19 413 -19 179 0 229 7 277 39 53 35 204 191 340
351 24 28 56 66 72 85 16 19 56 69 89 112 41 53 65 76 75 72 12 -4 12 -3 3 8
-9 11 -8 17 3 26 8 7 34 42 58 79 23 37 46 69 50 70 5 2 8 10 8 18 0 8 4 14
10 14 5 0 9 3 8 8 -3 12 63 112 75 112 5 0 8 3 5 6 -3 3 12 38 34 77 38 69
187 369 223 451 25 56 109 283 123 331 6 22 20 69 31 105 11 36 22 77 25 90 3
14 14 59 25 100 12 41 24 95 27 120 3 25 9 50 12 55 4 6 7 19 8 30 0 11 4 34
8 50 15 68 17 82 21 115 2 19 4 35 5 35 1 0 4 22 7 50 2 27 10 53 16 57 9 6 8
8 -1 8 -7 0 -11 3 -8 8 2 4 7 25 10 47 23 160 24 327 2 379 -36 86 -151 135
-234 101 -36 -15 -117 -93 -108 -103 3 -2 1 -12 -4 -22 -5 -9 -11 -61 -14
-116 -3 -54 -10 -133 -15 -174 -6 -41 -13 -95 -15 -120 -3 -25 -7 -54 -10 -65
-4 -22 -17 -112 -17 -120 0 -2 -5 -19 -10 -37 -5 -18 -12 -49 -15 -68 -3 -19
-10 -37 -15 -38 -5 -2 -7 -7 -5 -11 3 -4 -1 -31 -9 -60 -7 -28 -14 -54 -14
-56 -1 -3 -3 -10 -6 -17 -2 -7 -20 -67 -41 -133 -47 -153 -100 -305 -132 -375
-113 -251 -134 -294 -144 -298 -5 -2 -8 -10 -8 -17 0 -8 -7 -21 -16 -29 -8 -9
-12 -16 -8 -16 3 0 2 -6 -4 -12 -5 -7 -19 -29 -30 -49 -40 -72 -47 -84 -52
-89 -3 -3 -12 -18 -20 -35 -21 -42 -82 -125 -93 -125 -4 0 -6 -4 -3 -8 3 -5
-4 -18 -14 -30 -11 -12 -20 -24 -20 -27 0 -7 -47 -72 -68 -94 -7 -8 -20 -24
-29 -37 -8 -13 -20 -21 -26 -17 -6 3 -7 1 -3 -5 4 -7 -29 -56 -76 -114 -100
-124 -104 -129 -112 -121 -3 4 -6 -1 -6 -10 0 -10 -4 -17 -9 -17 -4 0 -8 20
-7 45 0 25 4 45 9 45 4 0 5 6 0 13 -12 20 -12 37 0 37 8 0 7 3 -2 9 -9 6 -10
11 -2 15 6 4 8 13 4 19 -4 7 -8 62 -8 122 -1 123 -16 192 -51 231 -14 14 -22
29 -19 34 3 4 -3 7 -13 6 -9 0 -16 4 -15 10 1 7 -8 9 -24 6 -15 -3 -23 -1 -20
5 8 13 -66 12 -75 -1 -5 -7 -8 -6 -8 3 0 12 -3 11 -17 -1 -10 -8 -28 -14 -40
-13 -15 1 -20 -3 -15 -14 3 -9 2 -13 -3 -9 -11 10 -73 -70 -83 -107 -4 -16 -7
-79 -6 -140 0 -60 -3 -115 -8 -122 -5 -7 -5 -14 2 -18 18 -11 12 -38 -7 -31
-16 5 -16 5 -2 -6 13 -11 15 -37 15 -153 l-1 -140 -75 3 c-41 1 -77 7 -78 13
-3 6 -8 6 -15 0 -7 -5 -34 -6 -67 -1 -30 5 -75 11 -100 15 -77 11 -104 15
-125 19 -11 2 -40 7 -65 11 -25 4 -70 14 -100 22 -30 8 -62 16 -70 18 -8 1
-44 11 -80 20 -36 9 -69 18 -75 19 -62 13 -354 114 -450 156 -22 10 -51 21
-63 25 -13 4 -45 16 -70 28 -26 12 -49 22 -52 22 -3 0 -15 6 -26 13 -12 6 -24
8 -28 5 -3 -3 -6 0 -6 9 0 8 10 19 23 25 21 10 187 129 197 143 3 3 33 28 68
54 35 26 71 56 80 65 9 9 46 41 82 71 137 115 375 363 512 535 44 55 88 109
97 120 9 11 72 103 140 205 69 102 128 184 133 182 5 -1 7 2 4 7 -4 5 8 34 25
63 56 93 109 191 143 263 77 161 106 228 112 251 3 13 10 24 15 24 5 0 8 3 8
8 -1 4 0 10 1 15 1 4 3 10 4 15 1 4 7 16 13 27 6 11 11 22 10 25 -1 11 26 86
36 98 5 6 7 12 3 12 -3 0 1 17 9 38 8 20 16 49 19 64 3 15 8 33 12 39 6 11 49
166 60 219 3 14 9 41 14 60 5 19 12 47 15 63 5 27 10 49 20 97 3 14 8 39 10
55 2 17 9 59 14 95 18 116 33 259 34 323 0 15 3 27 7 27 3 0 6 123 5 273 0
172 3 277 10 286 8 12 7 13 -4 6 -11 -6 -13 -3 -9 13 4 12 2 22 -3 22 -5 0 -9
9 -9 20 0 42 -87 108 -132 101 -5 0 -8 3 -8 7 0 9 -42 8 -58 -2 -7 -4 -12 -3
-12 2 0 6 -22 -2 -50 -16 -27 -14 -50 -30 -50 -34 0 -5 -5 -6 -12 -2 -6 4 -8
3 -4 -4 3 -6 -2 -17 -11 -24 -23 -17 -22 -11 -27 -273 -4 -214 -10 -319 -21
-400 -3 -22 -8 -71 -11 -110 -3 -38 -7 -80 -9 -91 -2 -12 -7 -48 -10 -80 -4
-33 -9 -68 -11 -79 -20 -106 -26 -141 -28 -150 -2 -5 -9 -37 -16 -70 -8 -33
-14 -62 -15 -65 -2 -9 -26 -84 -32 -100 -9 -22 -10 -28 -12 -51 -1 -12 -5 -17
-13 -13 -7 4 -8 3 -4 -4 8 -13 -85 -295 -115 -351 -10 -20 -19 -39 -19 -43 0
-12 -181 -371 -220 -437 -39 -64 -155 -234 -177 -258 -6 -7 -21 -28 -33 -48
-12 -19 -26 -35 -31 -35 -5 0 -8 -4 -6 -8 1 -4 -12 -26 -30 -47 -18 -22 -45
-57 -61 -77 -16 -21 -33 -34 -37 -30 -5 4 -5 2 -2 -4 3 -5 -11 -29 -31 -52
-20 -22 -55 -62 -77 -88 -82 -98 -265 -275 -277 -268 -6 4 -8 3 -5 -3 8 -13
-41 -55 -55 -47 -6 4 -8 3 -5 -3 9 -15 -90 -96 -109 -89 -9 3 -12 2 -9 -4 9
-14 -22 -43 -36 -34 -7 4 -9 3 -5 -4 5 -9 -62 -72 -78 -72 -3 0 -14 -7 -23
-15 -37 -32 -170 -133 -230 -173 -69 -47 -69 -47 -155 10 -31 21 -61 38 -67
38 -5 0 -11 4 -13 8 -1 4 -36 32 -75 61 -40 30 -73 56 -73 58 0 2 4 2 9 -1 5
-3 11 1 15 9 3 8 11 15 19 15 7 0 28 11 47 25 19 14 41 23 49 20 9 -3 12 -3 8
1 -4 4 12 19 35 33 55 32 312 215 358 254 127 108 192 169 328 307 85 85 183
192 220 238 36 45 70 82 75 82 6 0 8 3 4 6 -3 4 9 25 27 48 33 40 176 257 189
286 4 8 18 33 32 55 14 22 28 47 32 55 3 8 16 31 28 50 33 53 95 172 95 182 0
5 8 20 17 35 10 14 18 31 19 37 1 6 22 63 46 126 25 63 57 156 72 205 15 50
39 126 53 170 24 78 29 96 39 143 12 61 14 74 19 95 13 60 16 75 20 117 3 25
8 56 11 70 3 13 7 47 10 75 2 27 6 59 8 70 9 47 19 224 21 410 2 110 6 218 10
240 3 22 8 56 10 76 1 20 9 47 16 60 7 13 14 26 14 29 2 15 50 90 59 90 5 0 7
3 3 6 -6 6 61 76 114 119 32 26 105 62 162 79 68 20 238 15 307 -9 30 -11 57
-22 60 -25 3 -3 18 -12 34 -20 16 -8 42 -27 58 -42 15 -14 28 -24 28 -21 0 2
12 -10 27 -29 15 -18 32 -36 38 -40 5 -4 6 -8 2 -8 -4 0 3 -12 17 -27 14 -15
28 -40 31 -55 4 -15 10 -28 15 -28 10 0 31 -115 37 -205 6 -104 10 -589 4
-600 -3 -5 -6 -21 -7 -35 -2 -37 -14 -151 -18 -180 -2 -14 -6 -47 -10 -75 -8
-58 -9 -62 -24 -135 -7 -30 -14 -66 -16 -80 -3 -14 -5 -25 -6 -25 -1 0 -3 -11
-5 -25 -2 -14 -11 -56 -20 -95 -9 -38 -19 -81 -21 -95 -3 -14 -10 -43 -16 -65
-5 -22 -12 -49 -15 -60 -2 -11 -5 -24 -7 -30 -22 -81 -31 -111 -53 -175 -23
-69 -72 -198 -92 -245 -9 -20 -34 -81 -51 -120 -24 -59 -127 -273 -157 -325
-33 -59 -47 -85 -49 -90 0 -3 -3 -12 -7 -20 -25 -61 -27 -116 -6 -170 7 -19
12 -38 11 -42 -1 -4 7 -10 18 -13 11 -4 20 -13 20 -21 0 -8 5 -12 10 -9 6 3
10 1 10 -4 0 -19 66 -39 111 -35 83 8 132 50 207 178 52 87 161 308 183 369 7
20 17 37 21 37 4 0 7 3 6 8 -2 6 27 90 49 142 3 8 7 18 8 23 2 4 4 9 5 12 1 3
3 8 5 13 2 7 18 48 32 82 3 8 8 24 10 34 2 11 8 25 14 33 6 7 9 13 5 13 -4 0
0 13 9 30 8 16 15 32 15 35 0 3 0 6 1 8 0 1 2 9 4 17 2 8 15 55 29 104 14 48
28 98 30 110 6 30 37 167 42 191 3 11 7 29 8 40 2 11 4 20 5 20 6 0 46 222 66
365 4 25 9 47 11 49 2 2 -1 10 -7 18 -7 8 -7 13 -2 13 6 0 9 11 8 25 -2 14 0
25 3 25 4 0 7 28 8 63 1 34 5 125 9 202 10 169 10 245 1 435 -13 288 -17 307
-99 480 -39 82 -88 159 -121 191 -14 13 -26 30 -26 38 0 8 -3 12 -6 9 -3 -4
-25 14 -48 38 -24 24 -46 44 -50 44 -4 0 -22 11 -39 24 -44 32 -169 96 -190
96 -9 0 -17 4 -17 8 0 5 -6 9 -12 9 -7 1 -47 10 -88 21 -113 29 -305 27 -430
-4z"/>
<path d="M14880 11120 c-9 -6 -10 -10 -3 -10 6 0 15 5 18 10 8 12 4 12 -15 0z"/>
<path d="M10950 11046 c0 -2 7 -7 16 -10 8 -3 12 -2 9 4 -6 10 -25 14 -25 6z"/>
<path d="M15790 10680 c0 -5 5 -10 11 -10 5 0 7 5 4 10 -3 6 -8 10 -11 10 -2
0 -4 -4 -4 -10z"/>
<path d="M15476 10447 c3 -10 9 -15 12 -12 3 3 0 11 -7 18 -10 9 -11 8 -5 -6z"/>
<path d="M7630 9336 c0 -2 8 -10 18 -17 15 -13 16 -12 3 4 -13 16 -21 21 -21
13z"/>
<path d="M7673 9275 c0 -8 4 -12 9 -9 4 3 8 9 8 15 0 5 -4 9 -8 9 -5 0 -9 -7
-9 -15z"/>
<path d="M9435 8451 c-3 -5 -2 -12 3 -15 5 -3 9 1 9 9 0 17 -3 19 -12 6z"/>
<path d="M12675 8449 c-4 -6 -5 -12 -2 -15 2 -3 7 2 10 11 7 17 1 20 -8 4z"/>
<path d="M10599 7233 c-13 -16 -12 -17 4 -4 9 7 17 15 17 17 0 8 -8 3 -21 -13z"/>
<path d="M7436 7113 c-6 -14 -5 -15 5 -6 7 7 10 15 7 18 -3 3 -9 -2 -12 -12z"/>
<path d="M8789 6323 c-13 -16 -12 -17 4 -4 16 13 21 21 13 21 -2 0 -10 -8 -17
-17z"/>
<path d="M8270 5886 c0 -2 7 -7 16 -10 8 -3 12 -2 9 4 -6 10 -25 14 -25 6z"/>
<path d="M2282 16644 c10 -10 20 -16 22 -13 3 3 -5 11 -17 18 -21 13 -21 12
-5 -5z"/>
<path d="M500 16566 c0 -2 8 -10 18 -17 15 -13 16 -12 3 4 -13 16 -21 21 -21
13z"/>
<path d="M5150 16366 c0 -2 7 -7 16 -10 8 -3 12 -2 9 4 -6 10 -25 14 -25 6z"/>
<path d="M15750 16360 c0 -5 5 -10 11 -10 5 0 7 5 4 10 -3 6 -8 10 -11 10 -2
0 -4 -4 -4 -10z"/>
<path d="M13310 16326 c0 -2 7 -7 16 -10 8 -3 12 -2 9 4 -6 10 -25 14 -25 6z"/>
<path d="M5996 16242 c-3 -5 1 -9 9 -9 8 0 12 4 9 9 -3 4 -7 8 -9 8 -2 0 -6
-4 -9 -8z"/>
<path d="M16520 16200 c-9 -6 -10 -10 -3 -10 6 0 15 5 18 10 8 12 4 12 -15 0z"/>
<path d="M18395 16100 c3 -5 8 -10 11 -10 2 0 4 5 4 10 0 6 -5 10 -11 10 -5 0
-7 -4 -4 -10z"/>
<path d="M387 15999 c7 -7 15 -10 18 -7 3 3 -2 9 -12 12 -14 6 -15 5 -6 -5z"/>
<path d="M4235 15951 c-3 -5 -2 -12 3 -15 5 -3 9 1 9 9 0 17 -3 19 -12 6z"/>
<path d="M14915 15880 c-3 -5 -1 -10 4 -10 6 0 11 5 11 10 0 6 -2 10 -4 10 -3
0 -8 -4 -11 -10z"/>
<path d="M5155 15641 c-3 -5 -2 -12 3 -15 5 -3 9 1 9 9 0 17 -3 19 -12 6z"/>
<path d="M17830 15581 c0 -6 4 -13 10 -16 6 -3 7 1 4 9 -7 18 -14 21 -14 7z"/>
<path d="M19085 15200 c-3 -6 1 -7 9 -4 18 7 21 14 7 14 -6 0 -13 -4 -16 -10z"/>
<path d="M19749 15043 c-13 -16 -12 -17 4 -4 9 7 17 15 17 17 0 8 -8 3 -21
-13z"/>
<path d="M17955 14880 c-3 -5 -1 -10 4 -10 6 0 11 5 11 10 0 6 -2 10 -4 10 -3
0 -8 -4 -11 -10z"/>
<path d="M19315 14851 c-3 -5 -2 -12 3 -15 5 -3 9 1 9 9 0 17 -3 19 -12 6z"/>
<path d="M18949 14523 c-13 -16 -12 -17 4 -4 9 7 17 15 17 17 0 8 -8 3 -21
-13z"/>
<path d="M17635 14520 c3 -5 8 -10 11 -10 2 0 4 5 4 10 0 6 -5 10 -11 10 -5 0
-7 -4 -4 -10z"/>
<path d="M17940 14086 c0 -2 8 -10 18 -17 15 -13 16 -12 3 4 -13 16 -21 21
-21 13z"/>
<path d="M17555 14040 c3 -5 8 -10 11 -10 2 0 4 5 4 10 0 6 -5 10 -11 10 -5 0
-7 -4 -4 -10z"/>
<path d="M3575 13760 c3 -5 8 -10 11 -10 2 0 4 5 4 10 0 6 -5 10 -11 10 -5 0
-7 -4 -4 -10z"/>
<path d="M16345 13680 c-3 -6 1 -7 9 -4 18 7 21 14 7 14 -6 0 -13 -4 -16 -10z"/>
<path d="M3915 13451 c-3 -5 -2 -12 3 -15 5 -3 9 1 9 9 0 17 -3 19 -12 6z"/>
<path d="M4030 13439 c0 -5 5 -7 10 -4 6 3 10 8 10 11 0 2 -4 4 -10 4 -5 0
-10 -5 -10 -11z"/>
<path d="M3273 13385 c0 -8 4 -12 9 -9 5 3 6 10 3 15 -9 13 -12 11 -12 -6z"/>
<path d="M2796 13273 c-6 -14 -5 -15 5 -6 7 7 10 15 7 18 -3 3 -9 -2 -12 -12z"/>
<path d="M4070 13206 c0 -2 7 -7 16 -10 8 -3 12 -2 9 4 -6 10 -25 14 -25 6z"/>
<path d="M4295 13120 c-3 -5 -1 -10 4 -10 6 0 11 5 11 10 0 6 -2 10 -4 10 -3
0 -8 -4 -11 -10z"/>
<path d="M16146 12642 c-3 -5 1 -9 9 -9 8 0 12 4 9 9 -3 4 -7 8 -9 8 -2 0 -6
-4 -9 -8z"/>
<path d="M17355 12480 c-3 -5 -1 -10 4 -10 6 0 11 5 11 10 0 6 -2 10 -4 10 -3
0 -8 -4 -11 -10z"/>
<path d="M4367 12239 c7 -7 15 -10 18 -7 3 3 -2 9 -12 12 -14 6 -15 5 -6 -5z"/>
<path d="M4430 12246 c0 -2 7 -7 16 -10 8 -3 12 -2 9 4 -6 10 -25 14 -25 6z"/>
<path d="M20425 12200 c-3 -6 1 -7 9 -4 18 7 21 14 7 14 -6 0 -13 -4 -16 -10z"/>
<path d="M20393 11435 c0 -8 4 -12 9 -9 5 3 6 10 3 15 -9 13 -12 11 -12 -6z"/>
<path d="M18170 11200 c0 -5 5 -10 11 -10 5 0 7 5 4 10 -3 6 -8 10 -11 10 -2
0 -4 -4 -4 -10z"/>
<path d="M16705 11080 c-3 -6 1 -7 9 -4 18 7 21 14 7 14 -6 0 -13 -4 -16 -10z"/>
<path d="M2955 10929 c-4 -6 -5 -12 -2 -15 2 -3 7 2 10 11 7 17 1 20 -8 4z"/>
<path d="M1753 10705 c0 -8 4 -12 9 -9 5 3 6 10 3 15 -9 13 -12 11 -12 -6z"/>
<path d="M236 10153 c-6 -14 -5 -15 5 -6 7 7 10 15 7 18 -3 3 -9 -2 -12 -12z"/>
<path d="M2089 10083 c-13 -16 -12 -17 4 -4 9 7 17 15 17 17 0 8 -8 3 -21 -13z"/>
<path d="M736 9927 c3 -10 9 -15 12 -12 3 3 0 11 -7 18 -10 9 -11 8 -5 -6z"/>
<path d="M2389 9783 c-13 -16 -12 -17 4 -4 9 7 17 15 17 17 0 8 -8 3 -21 -13z"/>
<path d="M587 9759 c7 -7 15 -10 18 -7 3 3 -2 9 -12 12 -14 6 -15 5 -6 -5z"/>
<path d="M20270 9376 c0 -2 8 -10 18 -17 15 -13 16 -12 3 4 -13 16 -21 21 -21
13z"/>
<path d="M19760 9360 c-9 -6 -10 -10 -3 -10 6 0 15 5 18 10 8 12 4 12 -15 0z"/>
<path d="M17150 9240 c0 -5 5 -10 11 -10 5 0 7 5 4 10 -3 6 -8 10 -11 10 -2 0
-4 -4 -4 -10z"/>
<path d="M3110 9199 c0 -5 5 -7 10 -4 6 3 10 8 10 11 0 2 -4 4 -10 4 -5 0 -10
-5 -10 -11z"/>
<path d="M16695 8960 c3 -5 8 -10 11 -10 2 0 4 5 4 10 0 6 -5 10 -11 10 -5 0
-7 -4 -4 -10z"/>
<path d="M790 8840 c0 -5 5 -10 11 -10 5 0 7 5 4 10 -3 6 -8 10 -11 10 -2 0
-4 -4 -4 -10z"/>
<path d="M853 8805 c0 -8 4 -12 9 -9 5 3 6 10 3 15 -9 13 -12 11 -12 -6z"/>
<path d="M18976 8722 c-3 -5 1 -9 9 -9 8 0 12 4 9 9 -3 4 -7 8 -9 8 -2 0 -6
-4 -9 -8z"/>
<path d="M2069 8263 c-13 -16 -12 -17 4 -4 9 7 17 15 17 17 0 8 -8 3 -21 -13z"/>
<path d="M1426 8182 c-3 -5 1 -9 9 -9 8 0 12 4 9 9 -3 4 -7 8 -9 8 -2 0 -6 -4
-9 -8z"/>
<path d="M19755 8091 c-3 -5 -2 -12 3 -15 5 -3 9 1 9 9 0 17 -3 19 -12 6z"/>
<path d="M18490 7926 c0 -2 7 -7 16 -10 8 -3 12 -2 9 4 -6 10 -25 14 -25 6z"/>
<path d="M19030 7879 c0 -5 5 -7 10 -4 6 3 10 8 10 11 0 2 -4 4 -10 4 -5 0
-10 -5 -10 -11z"/>
<path d="M3906 7478 c3 -5 10 -6 15 -3 13 9 11 12 -6 12 -8 0 -12 -4 -9 -9z"/>
<path d="M1866 7362 c-3 -5 1 -9 9 -9 8 0 12 4 9 9 -3 4 -7 8 -9 8 -2 0 -6 -4
-9 -8z"/>
<path d="M1870 7286 c0 -2 7 -7 16 -10 8 -3 12 -2 9 4 -6 10 -25 14 -25 6z"/>
<path d="M4400 7206 c0 -2 8 -10 18 -17 15 -13 16 -12 3 4 -13 16 -21 21 -21
13z"/>
<path d="M1175 6571 c-3 -5 -2 -12 3 -15 5 -3 9 1 9 9 0 17 -3 19 -12 6z"/>
<path d="M17745 6480 c-3 -6 1 -7 9 -4 18 7 21 14 7 14 -6 0 -13 -4 -16 -10z"/>
<path d="M18066 6338 c3 -4 9 -8 15 -8 5 0 9 4 9 8 0 5 -7 9 -15 9 -8 0 -12
-4 -9 -9z"/>
<path d="M2155 6331 c-3 -5 -2 -12 3 -15 5 -3 9 1 9 9 0 17 -3 19 -12 6z"/>
<path d="M3395 6241 c-3 -5 -2 -12 3 -15 5 -3 9 1 9 9 0 17 -3 19 -12 6z"/>
<path d="M4206 6002 c-3 -5 1 -9 9 -9 8 0 12 4 9 9 -3 4 -7 8 -9 8 -2 0 -6 -4
-9 -8z"/>
<path d="M15835 5880 c-3 -5 -1 -10 4 -10 6 0 11 5 11 10 0 6 -2 10 -4 10 -3
0 -8 -4 -11 -10z"/>
<path d="M15513 5595 c0 -8 4 -12 9 -9 5 3 6 10 3 15 -9 13 -12 11 -12 -6z"/>
<path d="M17366 5602 c-3 -5 1 -9 9 -9 8 0 12 4 9 9 -3 4 -7 8 -9 8 -2 0 -6
-4 -9 -8z"/>
<path d="M1355 5529 c-4 -6 -5 -12 -2 -15 2 -3 7 2 10 11 7 17 1 20 -8 4z"/>
<path d="M4867 5359 c7 -7 15 -10 18 -7 3 3 -2 9 -12 12 -14 6 -15 5 -6 -5z"/>
<path d="M18356 5198 c3 -5 10 -6 15 -3 13 9 11 12 -6 12 -8 0 -12 -4 -9 -9z"/>
<path d="M19350 5020 c0 -5 5 -10 11 -10 5 0 7 5 4 10 -3 6 -8 10 -11 10 -2 0
-4 -4 -4 -10z"/>
<path d="M2770 4959 c0 -5 5 -7 10 -4 6 3 10 8 10 11 0 2 -4 4 -10 4 -5 0 -10
-5 -10 -11z"/>
<path d="M6153 4715 c0 -8 4 -12 9 -9 5 3 6 10 3 15 -9 13 -12 11 -12 -6z"/>
<path d="M8756 4602 c-3 -5 1 -9 9 -9 8 0 12 4 9 9 -3 4 -7 8 -9 8 -2 0 -6 -4
-9 -8z"/>
<path d="M14587 4599 c7 -7 15 -10 18 -7 3 3 -2 9 -12 12 -14 6 -15 5 -6 -5z"/>
<path d="M6915 4520 c-3 -5 -1 -10 4 -10 6 0 11 5 11 10 0 6 -2 10 -4 10 -3 0
-8 -4 -11 -10z"/>
<path d="M8835 4520 c-3 -5 -1 -10 4 -10 6 0 11 5 11 10 0 6 -2 10 -4 10 -3 0
-8 -4 -11 -10z"/>
<path d="M13546 4438 c3 -5 10 -6 15 -3 13 9 11 12 -6 12 -8 0 -12 -4 -9 -9z"/>
<path d="M5996 4393 c-6 -14 -5 -15 5 -6 7 7 10 15 7 18 -3 3 -9 -2 -12 -12z"/>
<path d="M19935 4320 c3 -5 8 -10 11 -10 2 0 4 5 4 10 0 6 -5 10 -11 10 -5 0
-7 -4 -4 -10z"/>
<path d="M4875 4121 c-3 -5 -2 -12 3 -15 5 -3 9 1 9 9 0 17 -3 19 -12 6z"/>
<path d="M1205 3999 c-3 -4 2 -6 10 -5 21 3 28 13 10 13 -9 0 -18 -4 -20 -8z"/>
<path d="M12919 3753 c-13 -16 -12 -17 4 -4 9 7 17 15 17 17 0 8 -8 3 -21 -13z"/>
<path d="M6530 3686 c0 -2 7 -7 16 -10 8 -3 12 -2 9 4 -6 10 -25 14 -25 6z"/>
<path d="M7115 3641 c-3 -5 -2 -12 3 -15 5 -3 9 1 9 9 0 17 -3 19 -12 6z"/>
<path d="M4435 3480 c3 -5 8 -10 11 -10 2 0 4 5 4 10 0 6 -5 10 -11 10 -5 0
-7 -4 -4 -10z"/>
<path d="M7546 3478 c3 -5 10 -6 15 -3 13 9 11 12 -6 12 -8 0 -12 -4 -9 -9z"/>
<path d="M10196 3473 c-6 -14 -5 -15 5 -6 7 7 10 15 7 18 -3 3 -9 -2 -12 -12z"/>
<path d="M16789 3463 c-13 -16 -12 -17 4 -4 16 13 21 21 13 21 -2 0 -10 -8
-17 -17z"/>
<path d="M18996 3438 c3 -5 10 -6 15 -3 13 9 11 12 -6 12 -8 0 -12 -4 -9 -9z"/>
<path d="M16066 3402 c-3 -5 1 -9 9 -9 8 0 12 4 9 9 -3 4 -7 8 -9 8 -2 0 -6
-4 -9 -8z"/>
<path d="M5526 3362 c-3 -5 1 -9 9 -9 8 0 12 4 9 9 -3 4 -7 8 -9 8 -2 0 -6 -4
-9 -8z"/>
<path d="M12015 3360 c3 -5 8 -10 11 -10 2 0 4 5 4 10 0 6 -5 10 -11 10 -5 0
-7 -4 -4 -10z"/>
<path d="M13396 3318 c3 -5 10 -6 15 -3 13 9 11 12 -6 12 -8 0 -12 -4 -9 -9z"/>
<path d="M15866 3158 c3 -5 10 -6 15 -3 13 9 11 12 -6 12 -8 0 -12 -4 -9 -9z"/>
<path d="M3467 3119 c7 -7 15 -10 18 -7 3 3 -2 9 -12 12 -14 6 -15 5 -6 -5z"/>
<path d="M7195 3040 c3 -5 8 -10 11 -10 2 0 4 5 4 10 0 6 -5 10 -11 10 -5 0
-7 -4 -4 -10z"/>
<path d="M14315 3040 c3 -5 8 -10 11 -10 2 0 4 5 4 10 0 6 -5 10 -11 10 -5 0
-7 -4 -4 -10z"/>
<path d="M8475 3031 c-3 -5 -2 -12 3 -15 5 -3 9 1 9 9 0 17 -3 19 -12 6z"/>
<path d="M6314 2840 c0 -13 4 -16 10 -10 7 7 7 13 0 20 -6 6 -10 3 -10 -10z"/>
<path d="M12030 2759 c0 -5 5 -7 10 -4 6 3 10 8 10 11 0 2 -4 4 -10 4 -5 0
-10 -5 -10 -11z"/>
<path d="M4355 2681 c-3 -5 -2 -12 3 -15 5 -3 9 1 9 9 0 17 -3 19 -12 6z"/>
<path d="M12550 2680 c0 -5 5 -10 11 -10 5 0 7 5 4 10 -3 6 -8 10 -11 10 -2 0
-4 -4 -4 -10z"/>
<path d="M12713 2665 c0 -8 4 -12 9 -9 5 3 6 10 3 15 -9 13 -12 11 -12 -6z"/>
<path d="M3785 2640 c-3 -6 1 -7 9 -4 18 7 21 14 7 14 -6 0 -13 -4 -16 -10z"/>
<path d="M12070 2646 c0 -2 7 -7 16 -10 8 -3 12 -2 9 4 -6 10 -25 14 -25 6z"/>
<path d="M5355 2480 c3 -5 8 -10 11 -10 2 0 4 5 4 10 0 6 -5 10 -11 10 -5 0
-7 -4 -4 -10z"/>
<path d="M9075 2480 c3 -5 8 -10 11 -10 2 0 4 5 4 10 0 6 -5 10 -11 10 -5 0
-7 -4 -4 -10z"/>
<path d="M13630 2482 c0 -5 7 -9 15 -9 8 0 12 4 9 9 -3 4 -9 8 -15 8 -5 0 -9
-4 -9 -8z"/>
<path d="M17759 2393 c-13 -17 -13 -17 6 -3 11 8 22 16 24 17 2 2 0 3 -6 3 -6
0 -17 -8 -24 -17z"/>
<path d="M9275 2331 c-3 -5 -2 -12 3 -15 5 -3 9 1 9 9 0 17 -3 19 -12 6z"/>
<path d="M1546 2322 c-3 -5 1 -9 9 -9 8 0 12 4 9 9 -3 4 -7 8 -9 8 -2 0 -6 -4
-9 -8z"/>
<path d="M7947 2319 c7 -7 15 -10 18 -7 3 3 -2 9 -12 12 -14 6 -15 5 -6 -5z"/>
<path d="M6840 2246 c0 -2 8 -10 18 -17 15 -13 16 -12 3 4 -13 16 -21 21 -21
13z"/>
<path d="M8046 2242 c-3 -5 1 -9 9 -9 8 0 12 4 9 9 -3 4 -7 8 -9 8 -2 0 -6 -4
-9 -8z"/>
<path d="M17946 2158 c3 -5 10 -6 15 -3 13 9 11 12 -6 12 -8 0 -12 -4 -9 -9z"/>
<path d="M3075 2121 c-3 -5 -2 -12 3 -15 5 -3 9 1 9 9 0 17 -3 19 -12 6z"/>
<path d="M17536 1998 c3 -5 10 -6 15 -3 13 9 11 12 -6 12 -8 0 -12 -4 -9 -9z"/>
<path d="M10016 1842 c-3 -5 1 -9 9 -9 8 0 12 4 9 9 -3 4 -7 8 -9 8 -2 0 -6
-4 -9 -8z"/>
<path d="M8475 1821 c-3 -5 -2 -12 3 -15 5 -3 9 1 9 9 0 17 -3 19 -12 6z"/>
<path d="M16475 1771 c-3 -5 -2 -12 3 -15 5 -3 9 1 9 9 0 17 -3 19 -12 6z"/>
<path d="M11613 1755 c0 -8 4 -12 9 -9 5 3 6 10 3 15 -9 13 -12 11 -12 -6z"/>
<path d="M11555 1729 c-4 -6 -5 -12 -2 -15 2 -3 7 2 10 11 7 17 1 20 -8 4z"/>
<path d="M5070 1560 c0 -5 5 -10 11 -10 5 0 7 5 4 10 -3 6 -8 10 -11 10 -2 0
-4 -4 -4 -10z"/>
<path d="M8250 1446 c0 -2 7 -7 16 -10 8 -3 12 -2 9 4 -6 10 -25 14 -25 6z"/>
<path d="M6960 1400 c-9 -6 -10 -10 -3 -10 6 0 15 5 18 10 8 12 4 12 -15 0z"/>
<path d="M12705 1360 c-3 -6 1 -7 9 -4 18 7 21 14 7 14 -6 0 -13 -4 -16 -10z"/>
<path d="M1513 1205 c0 -8 4 -12 9 -9 5 3 6 10 3 15 -9 13 -12 11 -12 -6z"/>
<path d="M156 1033 c-6 -14 -5 -15 5 -6 7 7 10 15 7 18 -3 3 -9 -2 -12 -12z"/>
<path d="M9313 1035 c0 -8 4 -12 9 -9 5 3 6 10 3 15 -9 13 -12 11 -12 -6z"/>
<path d="M2306 882 c-3 -5 1 -9 9 -9 8 0 12 4 9 9 -3 4 -7 8 -9 8 -2 0 -6 -4
-9 -8z"/>
<path d="M11989 803 c-13 -16 -12 -17 4 -4 9 7 17 15 17 17 0 8 -8 3 -21 -13z"/>
<path d="M4310 799 c0 -5 5 -7 10 -4 6 3 10 8 10 11 0 2 -4 4 -10 4 -5 0 -10
-5 -10 -11z"/>
<path d="M12073 725 c0 -8 4 -12 9 -9 5 3 6 10 3 15 -9 13 -12 11 -12 -6z"/>
<path d="M710 480 c0 -5 5 -10 11 -10 5 0 7 5 4 10 -3 6 -8 10 -11 10 -2 0 -4
-4 -4 -10z"/>
<path d="M18900 406 c0 -2 8 -10 18 -17 15 -13 16 -12 3 4 -13 16 -21 21 -21
13z"/>
</g>
</svg>
